<svg xmlns="http://www.w3.org/2000/svg" version="1.1" xmlns:xlink="http://www.w3.org/1999/xlink" width="512" height="512" x="0" y="0" viewBox="0 0 512 512" style="enable-background:new 0 0 512 512" xml:space="preserve" fill-rule="evenodd"><g><path d="m335 248-30-78-29-12c-2 0-3-2-4-3l-18-66-52-44-74 129 29-6 20-31c4-7 14-1 10 6l-21 33c-1 2-2 2-4 3l-70 14-30 55c26-9 28-18 60-4 19 8 22 8 41 0 22-9 28-9 50 0 19 8 22 8 41 0 22-9 28-10 50 0 13 5 19 8 31 4zm-180 62 38-22c7-4 13 6 6 10l-40 24-5 1-50-18 32 76h28l35-23c3-2 6-1 8 2l18 31c4 7-6 13-10 6l-15-26-25 17 61 77 47-83-29-19c-7-4 0-14 6-10l35 23h25l34-81-33-6-16 28c-4 7-14 1-10-6l18-32c1-2 4-4 6-3l44 9h26l8-27c-9-4-19-9-27-9-14 0-28 13-46 13-16 0-32-13-45-13s-30 13-46 13-32-13-45-13-28 13-46 13c-16 0-32-13-45-13-11 0-24 10-38 12l8 28c5 0 25-1 29 1zm139 78h-1l-5 10 39 31 37-59c1-2 3-3 5-3h27c16-37 39-91 48-114-12 5-22 11-36 8l-8 31c-1 3-3 5-6 5h-27l-37 87c-1 2-4 4-6 4zm-62 92-69-87h-31c-2 0-5-1-5-4l-38-88H62c-3 0-5-2-6-4l-10-35c-14-2-28-13-40-13-8 0-8-12 0-12 15 0 29 11 42 13l35-65c1-1 2-3 4-3l25-5 83-144c2-3 6-4 9-2l59 50c1 1 2 2 2 3l18 64 29 12c2 1 3 2 4 4l7 20 33-33c2-3 5-3 8-1l26 22 49 18c2 1 3 2 3 4l16 43c18-2 34 13 48 13 8 0 8 12 0 12-18 0-33-14-47-13-3 7-9 22-26 63-14 32-27 63-27 63-1 2-4 4-6 4h-28l-39 62c-2 3-6 4-9 2l-42-35-40 71c-2 3-7 4-10 1zm173-232c2 0 4 2 10 2 9 0 21-7 31-10l-14-39-49-19-23-19-32 34 18 46c30-12 34-3 59 5z" fill="#000000" opacity="1" data-original="#000000"></path></g></svg>