<svg xmlns="http://www.w3.org/2000/svg" version="1.1" xmlns:xlink="http://www.w3.org/1999/xlink" width="512" height="512" x="0" y="0" viewBox="0 0 512 512" style="enable-background:new 0 0 512 512" xml:space="preserve"><g><path d="M395.822 81.319h9.795a7.48 7.48 0 0 0 0-14.96h-9.795a7.48 7.48 0 0 0 0 14.96zM448.759 81.319h9.795a7.48 7.48 0 0 0 0-14.96h-9.795a7.48 7.48 0 0 0 0 14.96zM181.491 239.18h-9.795a7.48 7.48 0 0 0 0 14.96h9.795a7.48 7.48 0 0 0 0-14.96zM224.634 254.139h9.795a7.48 7.48 0 0 0 0-14.96h-9.795a7.48 7.48 0 0 0 0 14.96zM277.571 254.139h9.795a7.48 7.48 0 0 0 0-14.96h-9.795a7.48 7.48 0 0 0 0 14.96zM330.509 254.139h9.795a7.48 7.48 0 0 0 0-14.96h-9.795a7.48 7.48 0 0 0 0 14.96zM198.165 221.147h9.795a7.48 7.48 0 0 0 0-14.96h-9.795a7.48 7.48 0 0 0 0 14.96zM251.103 221.147h9.795a7.48 7.48 0 0 0 0-14.96h-9.795a7.48 7.48 0 0 0 0 14.96zM304.04 221.147h9.796a7.48 7.48 0 0 0 0-14.96h-9.796a7.48 7.48 0 0 0 0 14.96zM411.012 225.034h27.541c5.469 0 9.919-4.45 9.919-9.919v-23.646c0-13.062-10.627-23.689-23.69-23.689-13.062 0-23.69 10.627-23.69 23.689v23.646c0 5.469 4.45 9.919 9.92 9.919zm5.04-33.566c0-4.814 3.916-8.73 8.73-8.73s8.73 3.916 8.73 8.73v18.606h-17.461v-18.606zM424.782 338.814c-13.062 0-23.69 10.627-23.69 23.689v23.646c0 5.47 4.45 9.919 9.919 9.919h27.541c5.469 0 9.919-4.45 9.919-9.919v-23.646c.001-13.062-10.627-23.689-23.689-23.689zm8.73 42.295h-17.461v-18.606c0-4.814 3.916-8.73 8.73-8.73s8.73 3.916 8.73 8.73v18.606zM437.16 260.321a7.48 7.48 0 0 0-7.48-7.48h-9.796a7.48 7.48 0 0 0 0 14.96h9.796a7.48 7.48 0 0 0 7.48-7.48zM399.445 311.006h9.795a7.48 7.48 0 0 0 0-14.96h-9.795a7.48 7.48 0 0 0 0 14.96zM432.845 303.526a7.48 7.48 0 0 0 7.48 7.48h9.796a7.48 7.48 0 0 0 0-14.96h-9.796a7.48 7.48 0 0 0-7.48 7.48z" fill="#000000" opacity="1" data-original="#000000"></path><path d="M489.251 445.949h-3.894V114.316l20.356-28.242a22.673 22.673 0 0 0 4.307-13.338V9.431c0-4.969-4.043-9.012-9.012-9.012h-28.351c-4.97 0-9.013 4.043-9.013 9.012V30.66h-15.281V9.431c0-4.969-4.043-9.012-9.013-9.012h-29.138c-4.969 0-9.012 4.043-9.012 9.012V30.66h-15.28V9.431c0-4.969-4.043-9.012-9.012-9.012h-28.351c-4.97 0-9.013 4.043-9.013 9.012v63.306c0 4.817 1.489 9.429 4.307 13.338l20.356 28.242v23.862h-36.478c-5.694 0-10.327 4.633-10.327 10.328v22.966h-30.097v-22.966c0-5.695-4.633-10.328-10.328-10.328h-42.282c-5.695 0-10.328 4.633-10.328 10.328v22.966H194.27v-22.966c0-5.695-4.633-10.328-10.328-10.328h-36.497v-23.862L167.8 86.074a22.677 22.677 0 0 0 4.305-13.337V9.431c0-4.969-4.043-9.012-9.012-9.012h-28.351c-4.969 0-9.012 4.043-9.012 9.012V30.66h-15.282V9.431c0-4.969-4.043-9.012-9.012-9.012H72.299c-4.969 0-9.012 4.043-9.012 9.012V30.66H48.005V9.431c0-4.969-4.043-9.012-9.012-9.012H10.642C5.673.419 1.63 4.462 1.63 9.431v15.891a7.48 7.48 0 0 0 14.96 0v-9.944h16.456v21.229c0 4.969 4.043 9.012 9.012 9.012h27.177c4.969 0 9.012-4.043 9.012-9.012V15.378H95.49v21.229c0 4.969 4.043 9.012 9.012 9.012h27.176c4.969 0 9.012-4.043 9.012-9.012V15.378h16.456v57.358a7.81 7.81 0 0 1-1.482 4.591l-19.53 27.094H37.601L18.072 77.327a7.802 7.802 0 0 1-1.482-4.591V59.9a7.48 7.48 0 0 0-14.96 0v12.836c0 4.818 1.489 9.43 4.306 13.338l20.356 28.242v331.633h-3.544C10.205 445.949 0 456.154 0 468.698v30.579c0 6.785 5.52 12.305 12.305 12.305h487.391c6.784 0 12.305-5.52 12.305-12.305v-30.579c-.001-12.544-10.206-22.749-22.75-22.749zM355.986 77.327a7.805 7.805 0 0 1-1.482-4.591V15.378h16.457v21.229c0 4.969 4.043 9.012 9.012 9.012h27.176c4.97 0 9.013-4.043 9.013-9.012V15.378h17.243v21.229c0 4.969 4.043 9.012 9.012 9.012h27.176c4.969 0 9.012-4.043 9.012-9.012V15.378h16.456v57.358a7.805 7.805 0 0 1-1.482 4.591l-19.529 27.094h-98.535zm114.412 42.054v325.085h-91.231V119.381zm-322.936 33.756h31.847v22.966c0 5.695 4.633 10.328 10.328 10.328h39.36c5.695 0 10.328-4.633 10.328-10.328v-22.966h33.02v22.966c0 5.695 4.633 10.328 10.327 10.328h39.36c5.695 0 10.328-4.633 10.328-10.328v-22.966h31.846v291.329h-39.132v-37.799c0-4.131-3.348-7.48-7.48-7.48s-7.48 3.349-7.48 7.48v37.799h-46.537V285.488c26.269 3.741 46.537 26.38 46.537 53.667v32.614c0 4.131 3.348 7.48 7.48 7.48s7.48-3.349 7.48-7.48v-32.614c0-38.009-30.817-68.947-68.776-69.163-.067-.002-.132-.01-.2-.01l-.099.003-.099-.003c-.067 0-.133.008-.2.01-37.959.216-68.776 31.154-68.776 69.163v105.311H147.46V153.137zm100.959 132.351v158.978h-46.536v-105.31c0-27.287 20.267-49.926 46.536-53.668zM41.252 119.381h91.231v325.085H41.252zm455.789 377.241H14.959v-27.924c0-4.295 3.494-7.789 7.789-7.789h466.503c4.295 0 7.79 3.494 7.79 7.789z" fill="#000000" opacity="1" data-original="#000000"></path><path d="M73.098 225.034h27.54c5.47 0 9.919-4.45 9.919-9.919v-23.646c0-13.062-10.627-23.689-23.69-23.689-13.062 0-23.689 10.627-23.689 23.689v23.646c0 5.469 4.45 9.919 9.92 9.919zm5.04-33.566c0-4.814 3.916-8.73 8.73-8.73s8.73 3.916 8.73 8.73v18.606h-17.46zM86.868 338.814c-13.062 0-23.689 10.627-23.689 23.689v23.646c0 5.47 4.45 9.919 9.919 9.919h27.54c5.47 0 9.919-4.45 9.919-9.919v-23.646c0-13.062-10.626-23.689-23.689-23.689zm8.73 42.295h-17.46v-18.606c0-4.814 3.916-8.73 8.73-8.73s8.73 3.916 8.73 8.73zM81.97 252.842a7.48 7.48 0 0 0 0 14.96h9.795a7.48 7.48 0 0 0 0-14.96zM78.805 303.526a7.48 7.48 0 0 0-7.48-7.48H61.53a7.48 7.48 0 0 0 0 14.96h9.795a7.48 7.48 0 0 0 7.48-7.48zM112.206 296.046h-9.795a7.48 7.48 0 0 0 0 14.96h9.795a7.48 7.48 0 0 0 0-14.96zM67.702 81.319a7.48 7.48 0 0 0 0-14.96h-9.795a7.48 7.48 0 0 0 0 14.96zM120.64 81.319a7.48 7.48 0 0 0 0-14.96h-9.795a7.48 7.48 0 0 0 0 14.96z" fill="#000000" opacity="1" data-original="#000000"></path></g></svg>