<svg xmlns="http://www.w3.org/2000/svg" version="1.1" xmlns:xlink="http://www.w3.org/1999/xlink" width="512" height="512" x="0" y="0" viewBox="0 0 846.66 846.66" style="enable-background:new 0 0 512 512" xml:space="preserve" fill-rule="evenodd"><g><path fill-rule="nonzero" d="M423.33 29.19c62.27 0 119.63 29.82 155.69 79.12 124.62-40.75 253.01 51.83 253.01 183.19 0 99.7-75.89 182.42-173.99 191.93L624.1 712.14c-20.77 140.43-380.77 140.43-401.54 0l-33.94-228.71C90.52 473.92 14.63 391.2 14.63 291.5c0-131.36 128.39-223.94 253.01-183.19 36.06-49.3 93.42-79.12 155.69-79.12zm26.16 492.4c0-25.63 38.93-25.63 38.93 0V631.3c0 25.62-38.93 25.62-38.93 0zm93.73-28.04c2.9-25.43 41.53-21.02 38.63 4.41l-13.78 120.56c-2.9 25.42-41.53 21.01-38.62-4.41zm-184.98 28.04c0-25.63 38.93-25.63 38.93 0V631.3c0 25.62-38.93 25.62-38.93 0zm-93.43-23.63c-2.9-25.43 35.72-29.84 38.63-4.41l13.77 120.56c2.91 25.42-35.72 29.83-38.62 4.41zm324.85 181.32c-90.76 36.89-241.89 36.89-332.66 0l4.03 27.24c14.1 95.27 310.51 95.27 324.6 0zM250.13 632.9c79.57 46.86 266.83 46.86 346.4 0l22.23-149.63c-54.4-5.74-103.31-34.37-135.25-78.04-39.26 12.84-81.11 12.84-120.36 0-31.94 43.68-80.85 72.29-135.25 78.04zm-96.1-382.15c-11.72 22.74-46.24 4.91-34.52-17.79 22.55-43.67 68.09-70.39 117.19-69 25.56.72 24.44 39.49-1.06 38.77-34.29-.96-65.83 17.52-81.61 48.02zm269.3-140.65c28.23 0 55.76 9.35 77.98 26.11 20.34 15.34-3.06 46.37-23.41 31.02-15.77-11.89-34.44-18.2-54.57-18.2s-38.8 6.31-54.57 18.2c-20.36 15.35-43.76-15.68-23.42-31.02 22.23-16.77 49.76-26.11 77.99-26.11zM53.56 291.5c0 156.53 205.39 210.63 285.26 80.35 4.86-8.31 15.27-11.92 24.36-8.05 38.19 16.24 82.11 16.27 120.3 0 8.72-3.72 19.09-.58 24.18 7.76 81.65 133.85 285.44 72.76 285.44-80.06 0-111.4-114.18-184.3-214.06-141.76-8.72 3.72-19.09.58-24.18-7.76-27.77-45.53-77.2-73.86-131.53-73.86-53.73 0-104.35 28.47-131.36 73.57-4.86 8.31-15.26 11.92-24.35 8.05C167.58 107.2 53.56 180.18 53.56 291.5z" fill="#000000" opacity="1" data-original="#000000"></path></g></svg>