<svg xmlns="http://www.w3.org/2000/svg" version="1.1" xmlns:xlink="http://www.w3.org/1999/xlink" width="512" height="512" x="0" y="0" viewBox="0 0 60 60" style="enable-background:new 0 0 512 512" xml:space="preserve"><g><g fill="#000" fill-rule="nonzero"><path d="M3.074 31.237c.35.191.719.347 1.1.465a4.991 4.991 0 0 0 6.126 6.123 5.934 5.934 0 0 0 5.025 4.137A5.949 5.949 0 0 0 17 44.449V51c0 2.854-.565 5.866-2.068 6.74-.182-2.014-.857-5.892-3.377-7.572a1 1 0 0 0-1.11 1.664 6.184 6.184 0 0 1 2.089 3.649A5.989 5.989 0 0 0 9 54a.994.994 0 0 0-.993.986c-.004.548.431.999.979 1.014a4.622 4.622 0 0 1 3.214 2H7a1 1 0 0 0 0 2h52a1 1 0 0 0 0-2h-2V15a3 3 0 0 0 3-3v-.395a2.994 2.994 0 0 0-.5-1.664l-5.07-7.6A3 3 0 0 0 51.93 1H27a1 1 0 0 0-.831.444l-.309.464a4.939 4.939 0 0 0-5.572-.093 5.989 5.989 0 0 0-9.321.918 5.917 5.917 0 0 0-.733 1.646 6.979 6.979 0 0 0-7.182 11.548A4.991 4.991 0 0 0 2 19c.003.744.174 1.477.5 2.146a5.981 5.981 0 0 0 .573 10.091zM17.479 58c.99-1.534 1.521-3.911 1.521-7v-5.346a5.953 5.953 0 0 0 4 0V51c0 3.089.531 5.466 1.521 7zM55 39H43v-2h12zM41 54h-6v-3h6zm0-5h-6v-3h6zm0-5h-6v-3h6zm-6 12h6v2h-6zm6-17h-6V28a3 3 0 0 1 6 0zm-8 0h-8v-.813A6.066 6.066 0 0 0 26.466 37H33zm-3.866 19a2.951 2.951 0 0 1 1.313-2.1 1 1 0 0 0-.894-1.79 4.979 4.979 0 0 0-2.421 3.673C25.58 56.953 25 53.9 25 51V41h8v17zM43 58V41h8v17zm10 0V41h2v17zm2-23H43v-7a5 5 0 0 0-10 0v7h-5.359A5.969 5.969 0 0 0 28 33c0-.26-.018-.521-.052-.78a5.98 5.98 0 0 0 1.239-9.5A4.937 4.937 0 0 0 30 20a5.032 5.032 0 0 0-3.139-4.623c.025-.124.039-.251.058-.377H55zM51.93 3a1 1 0 0 1 .832.445l5.07 7.605c.109.165.167.358.168.555V12a1 1 0 0 1-1 1H26.927a7.032 7.032 0 0 0-2.913-4.72L27.534 3zM9.888 29.534a1 1 0 0 0-1.377-.324 4.32 4.32 0 0 1-4.463.28A4 4 0 0 1 2 26a3.95 3.95 0 0 1 1.7-3.264 5.343 5.343 0 0 0 2.042 1.136 1 1 0 0 0 .567-1.918A3.111 3.111 0 0 1 4 19a2.975 2.975 0 0 1 2.268-2.9 1 1 0 0 0-.475-1.944 4.941 4.941 0 0 0-1.208.488 4.992 4.992 0 0 1 5.443-8.207c.058.759.248 1.501.56 2.195a1 1 0 1 0 1.826-.814 4.13 4.13 0 0 1 .231-3.993 3.993 3.993 0 0 1 6.216-.611 4.945 4.945 0 0 0-.693 1.586 1 1 0 0 0 1.947.456A2.943 2.943 0 0 1 23 3a2.976 2.976 0 0 1 1.749.573L22.21 7.382a6.935 6.935 0 0 0-1.544-.348 1 1 0 1 0-.191 1.991 4.8 4.8 0 0 1 1.694.477A5.007 5.007 0 0 1 25 14a4.883 4.883 0 0 1-1.487 3.5 1 1 0 0 0 1.4 1.427 7.041 7.041 0 0 0 1.264-1.677A3.018 3.018 0 0 1 28 20c0 .558-.16 1.104-.458 1.575a5.834 5.834 0 0 0-1.371-.466 1 1 0 1 0-.377 1.964 4.006 4.006 0 0 1-.8 7.932 1 1 0 0 0 0 2c.333-.003.666-.033.994-.091 0 .029.006.057.006.086a4.025 4.025 0 0 1-2.393 3.67 4.12 4.12 0 0 1-2.677.187 1 1 0 1 0-.539 1.926A5.973 5.973 0 0 0 23 38.91v4.542a4.07 4.07 0 0 1-4.395-.248 3.93 3.93 0 0 1-1.463-4.168 1 1 0 0 0-1.938-.5 6.1 6.1 0 0 0-.176 1.337 3.966 3.966 0 0 1-2.935-4.66 1 1 0 0 0-1.963-.384c-.059.317-.092.64-.1.962A2.909 2.909 0 0 1 9 36a3 3 0 0 1-3-3 2.9 2.9 0 0 1 .206-1.025 6.877 6.877 0 0 0 3.357-1.064 1 1 0 0 0 .325-1.377z" fill="#000000" opacity="1" data-original="#000000"></path><path d="M16 31c.552 0 1-.448 1-1s.448-1 1-1a1 1 0 0 0 0-2 3 3 0 0 0-3 3 1 1 0 0 0 1 1zM12 19c.552 0 1-.448 1-1s.448-1 1-1a1 1 0 0 0 0-2 3 3 0 0 0-3 3 1 1 0 0 0 1 1zM20 21c.552 0 1 .448 1 1a1 1 0 0 0 2 0 3 3 0 0 0-3-3 1 1 0 0 0 0 2zM47 25h4a2 2 0 0 0 2-2v-4a2 2 0 0 0-2-2h-4a2 2 0 0 0-2 2v4a2 2 0 0 0 2 2zm0-6h4v4h-4zM29 11h24a1 1 0 0 0 0-2H29a1 1 0 0 0 0 2zM3 60a1 1 0 0 0 0-2H1a1 1 0 0 0 0 2z" fill="#000000" opacity="1" data-original="#000000"></path></g></g></svg>