<svg xmlns="http://www.w3.org/2000/svg" version="1.1" xmlns:xlink="http://www.w3.org/1999/xlink" width="512" height="512" x="0" y="0" viewBox="0 0 64 64" style="enable-background:new 0 0 512 512" xml:space="preserve"><g><path d="m50.216 58.916.802-1.832a132.75 132.75 0 0 0-24.804-8.06c-.403-.089-.81-.166-1.214-.251V40h1a1 1 0 0 0 .707-1.707l-8-8a1 1 0 0 0-1.414 0l-8 8A1 1 0 0 0 10 40h1v6.618Q6.023 46.124 1.023 46l-.046 2a130.726 130.726 0 0 1 24.81 2.977 130.83 130.83 0 0 1 24.429 7.939ZM19 47.662c-.666-.107-1.332-.215-2-.313V44h2Zm4 .701c-.665-.128-1.333-.244-2-.362V43a1 1 0 0 0-1-1h-4a1 1 0 0 0-1 1v4.081c-.666-.086-1.332-.17-2-.247V40h10ZM12.414 38 18 32.414 23.586 38ZM42.808 60.938l.69-1.877a132.776 132.776 0 0 0-17.284-5.038A132.727 132.727 0 0 0 1.024 51l-.047 2a130.726 130.726 0 0 1 24.81 2.977 130.875 130.875 0 0 1 17.021 4.961ZM33.725 63.09l.55-1.923a133.643 133.643 0 0 0-8.061-2.031 132.727 132.727 0 0 0-25.19-3.024l-.047 2a130.726 130.726 0 0 1 24.81 2.977c2.652.58 5.324 1.255 7.938 2.002ZM55 14.845V9h1a1 1 0 0 0 .65-1.759l-7-6a.997.997 0 0 0-1.3 0l-7 6A1 1 0 0 0 42 9h1v7.767q-5.158.994-10.244 2.263A210.697 210.697 0 0 0 24 21.428v-3.525A3.597 3.597 0 0 0 27 14c0-1.56-1.09-9.198-4-9.198S19 12.439 19 14a3.597 3.597 0 0 0 3 3.903v4.131a170.812 170.812 0 0 0-7 2.325v-3.456A3.597 3.597 0 0 0 18 17c0-1.56-1.09-9.198-4-9.198S10 15.439 10 17a3.597 3.597 0 0 0 3 3.903v4.19c-2.266.848-3.94 1.543-4.968 1.99-2.194.954-4.374 1.97-6.479 3.022l.894 1.79a133.5 133.5 0 0 1 6.383-2.978 161.977 161.977 0 0 1 24.414-7.947 187.826 187.826 0 0 1 29.84-4.974l-.168-1.992q-3.96.334-7.916.84ZM12 17c0-2.26 1.193-6.453 2-7.148.807.695 2 4.887 2 7.148 0 1.383-.617 2-2 2s-2-.617-2-2Zm9-3c0-2.26 1.193-6.453 2-7.148.807.695 2 4.887 2 7.148 0 1.383-.617 2-2 2s-2-.617-2-2Zm29 1.555c-.667.103-1.334.202-2 .312V13h2Zm3-.439c-.333.046-.667.088-1 .136V12a1 1 0 0 0-1-1h-4a1 1 0 0 0-1 1v4.216c-.333.059-.667.116-1 .177V9h8ZM44.703 7 49 3.317 53.297 7ZM32.757 24.758c-1.98.496-4.01 1.042-6.032 1.62l.55 1.923a188.606 188.606 0 0 1 5.969-1.604 187.826 187.826 0 0 1 29.84-4.973l-.168-1.993a189.772 189.772 0 0 0-30.16 5.027ZM32.757 30.03l-1.005.255.496 1.938.996-.253a187.826 187.826 0 0 1 29.84-4.974l-.168-1.992a189.772 189.772 0 0 0-30.16 5.026ZM35.772 35.026l.456 1.948a187.802 187.802 0 0 1 26.856-4.25l-.168-1.993a189.682 189.682 0 0 0-27.144 4.295Z" fill="#000000" opacity="1" data-original="#000000"></path></g></svg>