<svg xmlns="http://www.w3.org/2000/svg" version="1.1" xmlns:xlink="http://www.w3.org/1999/xlink" width="512" height="512" x="0" y="0" viewBox="0 0 682.667 682.667" style="enable-background:new 0 0 512 512" xml:space="preserve"><g><defs><clipPath id="a" clipPathUnits="userSpaceOnUse"><path d="M0 512h512V0H0Z" fill="#000000" opacity="1" data-original="#000000"></path></clipPath></defs><g clip-path="url(#a)" transform="matrix(1.33333 0 0 -1.33333 0 682.667)"><path d="M0 0c0-18.037-14.621-32.658-32.657-32.658-18.036 0-32.658 14.621-32.658 32.658 0 18.036 14.622 32.658 32.658 32.658S0 18.036 0 0Z" style="stroke-width:15;stroke-linecap:round;stroke-linejoin:round;stroke-miterlimit:10;stroke-dasharray:none;stroke-opacity:1" transform="translate(199.565 303.955)" fill="none" stroke="#000000" stroke-width="15" stroke-linecap="round" stroke-linejoin="round" stroke-miterlimit="10" stroke-dasharray="none" stroke-opacity="" data-original="#000000"></path><path d="M0 0c0-17.498-14.185-31.682-31.682-31.682-17.498 0-31.682 14.184-31.682 31.682 0 17.498 14.184 31.682 31.682 31.682C-14.185 31.682 0 17.498 0 0Z" style="stroke-width:15;stroke-linecap:round;stroke-linejoin:round;stroke-miterlimit:10;stroke-dasharray:none;stroke-opacity:1" transform="translate(287.006 345.01)" fill="none" stroke="#000000" stroke-width="15" stroke-linecap="round" stroke-linejoin="round" stroke-miterlimit="10" stroke-dasharray="none" stroke-opacity="" data-original="#000000"></path><path d="M0 0c0-17.497-14.185-31.682-31.682-31.682-17.498 0-31.682 14.185-31.682 31.682 0 17.498 14.184 31.682 31.682 31.682C-14.185 31.682 0 17.498 0 0Z" style="stroke-width:15;stroke-linecap:round;stroke-linejoin:round;stroke-miterlimit:10;stroke-dasharray:none;stroke-opacity:1" transform="translate(214.71 112.707)" fill="none" stroke="#000000" stroke-width="15" stroke-linecap="round" stroke-linejoin="round" stroke-miterlimit="10" stroke-dasharray="none" stroke-opacity="" data-original="#000000"></path><path d="M0 0c0-17.498-14.185-31.682-31.683-31.682-17.497 0-31.681 14.184-31.681 31.682 0 17.497 14.184 31.682 31.681 31.682C-14.185 31.682 0 17.497 0 0Z" style="stroke-width:15;stroke-linecap:round;stroke-linejoin:round;stroke-miterlimit:10;stroke-dasharray:none;stroke-opacity:1" transform="translate(306.98 83.1)" fill="none" stroke="#000000" stroke-width="15" stroke-linecap="round" stroke-linejoin="round" stroke-miterlimit="10" stroke-dasharray="none" stroke-opacity="" data-original="#000000"></path><path d="M0 0c0-21.111-17.113-38.225-38.225-38.225-21.111 0-38.224 17.114-38.224 38.225s17.113 38.225 38.224 38.225C-17.113 38.225 0 21.111 0 0Z" style="stroke-width:15;stroke-linecap:round;stroke-linejoin:round;stroke-miterlimit:10;stroke-dasharray:none;stroke-opacity:1" transform="translate(168.9 205.08)" fill="none" stroke="#000000" stroke-width="15" stroke-linecap="round" stroke-linejoin="round" stroke-miterlimit="10" stroke-dasharray="none" stroke-opacity="" data-original="#000000"></path><path d="M0 0c-14.749 12.879-31.479 23.892-49.733 32.624l14.012-51.538h-.001c4.025.354 7.848-2.201 8.946-6.236l3.533-12.997a8.508 8.508 0 0 0-5.977-10.44l-6.038-1.642 13.33-42.49C19.436-81.797 32.897-28.728 0 0Z" style="stroke-width:15;stroke-linecap:round;stroke-linejoin:round;stroke-miterlimit:10;stroke-dasharray:none;stroke-opacity:1" transform="translate(423.353 356.425)" fill="none" stroke="#000000" stroke-width="15" stroke-linecap="round" stroke-linejoin="round" stroke-miterlimit="10" stroke-dasharray="none" stroke-opacity="" data-original="#000000"></path><path d="m0 0-48.043-13.062a8.508 8.508 0 0 1-5.977-10.44l3.534-12.998a8.506 8.506 0 0 1 10.44-5.976L7.997-29.414a8.508 8.508 0 0 1 5.977 10.44L10.44-5.977A8.506 8.506 0 0 1 0 0Z" style="stroke-width:15;stroke-linecap:round;stroke-linejoin:round;stroke-miterlimit:10;stroke-dasharray:none;stroke-opacity:1" transform="translate(386.136 337.252)" fill="none" stroke="#000000" stroke-width="15" stroke-linecap="round" stroke-linejoin="round" stroke-miterlimit="10" stroke-dasharray="none" stroke-opacity="" data-original="#000000"></path><path d="m0 0 48.043 13.062c.499.136.999.216 1.496.26L33.418 72.613c-1.449 5.334-6.949 8.482-12.282 7.032l-31.647-8.604c-5.333-1.451-8.481-6.95-7.031-12.283L-1.422-.534C-.971-.32-.499-.136 0 0Z" style="stroke-width:15;stroke-linecap:round;stroke-linejoin:round;stroke-miterlimit:10;stroke-dasharray:none;stroke-opacity:1" transform="translate(338.093 324.19)" fill="none" stroke="#000000" stroke-width="15" stroke-linecap="round" stroke-linejoin="round" stroke-miterlimit="10" stroke-dasharray="none" stroke-opacity="" data-original="#000000"></path><path d="M0 0c-3.986 3.967-10.356 2.234-11.785-3.204C-20-34.479-41.771-46.873-34.407-73.959-28.48-95.758-9.06-105.461 1.8-109.276a9.952 9.952 0 0 0 4 2.169l31.646 8.604a9.947 9.947 0 0 0 4.548.155c7.432 8.788 19.267 26.989 13.34 48.788C47.969-22.474 22.92-22.81 0 0Z" style="stroke-width:15;stroke-linecap:round;stroke-linejoin:round;stroke-miterlimit:10;stroke-dasharray:none;stroke-opacity:1" transform="translate(321.782 502.337)" fill="none" stroke="#000000" stroke-width="15" stroke-linecap="round" stroke-linejoin="round" stroke-miterlimit="10" stroke-dasharray="none" stroke-opacity="" data-original="#000000"></path><path d="M0 0a237.586 237.586 0 0 1 58.126 12.598c28.978 10.203 46.286 33.487 51.468 59.07-6.904 20.35-8.987 31.142-17.736 69.031-7.124 8.113-16.224 15.004-27.34 19.995-21.942 9.852-35.439 22.923-35.439 37.397 0 15.566 15.577 29.463 40.404 39.504L59.33 281.564l-6.038-1.642a8.507 8.507 0 0 0-10.44 5.977l-3.534 12.997c-1.097 4.035.907 8.174 4.555 9.907l-16.12 59.291c-1.032 3.797.273 7.669 3.031 10.114-7.264 2.552-18.355 7.746-26.68 17.426-130.448 13.408-243.263-79.421-243.263-197.543C-239.159 88.786-144.564 6.186-35-.489" style="stroke-width:15;stroke-linecap:round;stroke-linejoin:round;stroke-miterlimit:10;stroke-dasharray:none;stroke-opacity:1" transform="translate(292.798 14.853)" fill="none" stroke="#000000" stroke-width="15" stroke-linecap="round" stroke-linejoin="round" stroke-miterlimit="10" stroke-dasharray="none" stroke-opacity="" data-original="#000000"></path><path d="m0 0-42.881 136.684-35.967-9.779 41.032-177.688A347.261 347.261 0 0 1-.988-144.185l6.911-12.051a11.492 11.492 0 0 1 21.462 5.836l-.143 13.891C26.857-99.15 20.784-66.251 10.48-33.407" style="stroke-width:15;stroke-linecap:round;stroke-linejoin:round;stroke-miterlimit:10;stroke-dasharray:none;stroke-opacity:1" transform="translate(430.976 169.512)" fill="none" stroke="#000000" stroke-width="15" stroke-linecap="round" stroke-linejoin="round" stroke-miterlimit="10" stroke-dasharray="none" stroke-opacity="" data-original="#000000"></path></g></g></svg>