<svg xmlns="http://www.w3.org/2000/svg" version="1.1" xmlns:xlink="http://www.w3.org/1999/xlink" width="512" height="512" x="0" y="0" viewBox="0 0 64 64" style="enable-background:new 0 0 512 512" xml:space="preserve" class=""><g><g data-name="24-Breakfast"><path d="M57 64H7a7.009 7.009 0 0 1-7-7 1 1 0 0 1 1-1h62a1 1 0 0 1 1 1 7.009 7.009 0 0 1-7 7ZM2.1 58A5.008 5.008 0 0 0 7 62h50a5.008 5.008 0 0 0 4.9-4Z" fill="#000000" opacity="1" data-original="#000000"></path><path d="M40 58H4a1 1 0 0 1-.8-.4l-3-4A1 1 0 0 1 1 52h41a1 1 0 0 1 .9 1.447l-2 4A1 1 0 0 1 40 58ZM4.5 56h34.882l1-2H3ZM53 58v-2a3 3 0 0 0 3-3V24H34v12h-2V23a1 1 0 0 1 1-1h24a1 1 0 0 1 1 1v30a5.006 5.006 0 0 1-5 5Z" fill="#000000" opacity="1" data-original="#000000"></path><path d="M59 51h-2a1 1 0 0 1-1-1V28a1 1 0 0 1 1-1h2a5.006 5.006 0 0 1 5 5v14a5.006 5.006 0 0 1-5 5Zm-1-2h1a3 3 0 0 0 3-3V32a3 3 0 0 0-3-3h-1ZM43 17h-2a4.907 4.907 0 0 1 1.2-3.267 3.069 3.069 0 0 0 0-4.133A4.907 4.907 0 0 1 41 6.333a4.9 4.9 0 0 1 1.2-3.266A2.97 2.97 0 0 0 43 1h2a4.907 4.907 0 0 1-1.2 3.267 2.965 2.965 0 0 0-.8 2.066 2.97 2.97 0 0 0 .8 2.067 5.046 5.046 0 0 1 0 6.533A2.97 2.97 0 0 0 43 17ZM49 17h-2a4.907 4.907 0 0 1 1.2-3.267 3.069 3.069 0 0 0 0-4.133A4.907 4.907 0 0 1 47 6.333a4.9 4.9 0 0 1 1.2-3.266A2.97 2.97 0 0 0 49 1h2a4.907 4.907 0 0 1-1.2 3.267 2.965 2.965 0 0 0-.8 2.066 2.97 2.97 0 0 0 .8 2.067 5.046 5.046 0 0 1 0 6.533A2.97 2.97 0 0 0 49 17ZM31.33 53.5l-1.73-1A3.006 3.006 0 0 0 30 51a7.009 7.009 0 0 0-7-7H11a7.009 7.009 0 0 0-7 7 3.006 3.006 0 0 0 .4 1.5l-1.732 1A5 5 0 0 1 2 51a9.01 9.01 0 0 1 9-9h12a9.01 9.01 0 0 1 9 9 4.99 4.99 0 0 1-.67 2.5Z" fill="#000000" opacity="1" data-original="#000000"></path><path d="M15 50h-2a8.079 8.079 0 0 1 6.836-7.986l.328 1.972L20 43l.168.986C19.957 44.022 15 44.941 15 50Z" fill="#000000" opacity="1" data-original="#000000"></path><path d="M10 50H8a8.079 8.079 0 0 1 6.836-7.986l.328 1.972L15 43l.168.986C14.957 44.022 10 44.941 10 50ZM20 50h-2a8.649 8.649 0 0 1 5.634-7.931l.732 1.862A6.658 6.658 0 0 0 20 50Z" fill="#000000" opacity="1" data-original="#000000"></path><path d="M41 51h-2v-4a7 7 0 0 0-13.491-2.626l-1.854-.75A9 9 0 0 1 41 47Z" fill="#000000" opacity="1" data-original="#000000"></path><path d="M29 41h2v2h-2zM33 41h2v2h-2zM3.168 48.555A17.461 17.461 0 0 1 0 38.333C0 33.738 5.166 30 11.517 30h3.029C20.861 30 26 33.738 26 38.333a7.336 7.336 0 0 1-.042.772L23.97 38.9a5.537 5.537 0 0 0 .03-.562C24 34.841 19.759 32 14.546 32h-3.029C6.27 32 2 34.841 2 38.333a15.373 15.373 0 0 0 2.832 9.112Z" fill="#000000" opacity="1" data-original="#000000"></path><path d="M12 31.093a3.728 3.728 0 0 0-.192-.893.79.79 0 0 1-.016-.052A1.57 1.57 0 0 0 10.221 29H9v-2h1.221a3.59 3.59 0 0 1 3.472 2.512c.012.033.023.067.032.1A5.817 5.817 0 0 1 14 30.907Z" fill="#000000" opacity="1" data-original="#000000"></path><path d="M14 32h-1a1 1 0 0 1-1-1v-2a.99.99 0 0 1 .018-.188C12.585 25.844 15.644 24 20 24h.161a11.045 11.045 0 0 1 2.15.211 17.677 17.677 0 0 1 3.1.877 1 1 0 0 1 .538 1.228C25.871 26.549 23.939 32 14 32Zm0-2c6.08 0 8.594-2.176 9.542-3.443a22.147 22.147 0 0 0-1.622-.385A9.059 9.059 0 0 0 20.161 26H20c-3.287 0-5.574 1.186-6 3.1Z" fill="#000000" opacity="1" data-original="#000000"></path><path d="m13.707 31.707-1.414-1.414C12.509 30.077 17.67 25 25 25v2c-6.511 0-11.246 4.66-11.293 4.707ZM52 26h2v2h-2zM52 30h2v2h-2zM22 44H12a1 1 0 0 1-1-1 5.006 5.006 0 0 1 5-5h2a5.006 5.006 0 0 1 5 5 1 1 0 0 1-1 1Zm-8.829-2h7.658A3.006 3.006 0 0 0 18 40h-2a3.006 3.006 0 0 0-2.829 2Z" fill="#000000" opacity="1" data-original="#000000"></path></g></g></svg>