<svg xmlns="http://www.w3.org/2000/svg" version="1.1" xmlns:xlink="http://www.w3.org/1999/xlink" width="512" height="512" x="0" y="0" viewBox="0 0 682.667 682.667" style="enable-background:new 0 0 512 512" xml:space="preserve" class=""><g><defs><clipPath id="a" clipPathUnits="userSpaceOnUse"><path d="M0 512h512V0H0Z" fill="#000000" opacity="1" data-original="#000000"></path></clipPath></defs><g clip-path="url(#a)" transform="matrix(1.33333 0 0 -1.33333 0 682.667)"><path d="M0 0h-181.214" style="stroke-width:15;stroke-linecap:round;stroke-linejoin:round;stroke-miterlimit:10;stroke-dasharray:none;stroke-opacity:1" transform="translate(504.497 405.117)" fill="none" stroke="#000000" stroke-width="15" stroke-linecap="round" stroke-linejoin="round" stroke-miterlimit="10" stroke-dasharray="none" stroke-opacity="" data-original="#000000"></path><path d="M0 0h-105.588" style="stroke-width:15;stroke-linecap:round;stroke-linejoin:round;stroke-miterlimit:10;stroke-dasharray:none;stroke-opacity:1" transform="translate(504.497 305.706)" fill="none" stroke="#000000" stroke-width="15" stroke-linecap="round" stroke-linejoin="round" stroke-miterlimit="10" stroke-dasharray="none" stroke-opacity="" data-original="#000000"></path><path d="M0 0h-44.389" style="stroke-width:15;stroke-linecap:round;stroke-linejoin:round;stroke-miterlimit:10;stroke-dasharray:none;stroke-opacity:1" transform="translate(504.497 206.323)" fill="none" stroke="#000000" stroke-width="15" stroke-linecap="round" stroke-linejoin="round" stroke-miterlimit="10" stroke-dasharray="none" stroke-opacity="" data-original="#000000"></path><path d="M0 0h-84.811" style="stroke-width:15;stroke-linecap:round;stroke-linejoin:round;stroke-miterlimit:10;stroke-dasharray:none;stroke-opacity:1" transform="translate(504.497 106.911)" fill="none" stroke="#000000" stroke-width="15" stroke-linecap="round" stroke-linejoin="round" stroke-miterlimit="10" stroke-dasharray="none" stroke-opacity="" data-original="#000000"></path><path d="M0 0h175.715a5.504 5.504 0 0 1 5.499 5.499v400.905c0 49.834-40.761 90.596-90.592 90.596C40.79 497 0 456.238 0 406.404v-56.012" style="stroke-width:15;stroke-linecap:round;stroke-linejoin:round;stroke-miterlimit:10;stroke-dasharray:none;stroke-opacity:1" transform="translate(323.282 7.5)" fill="none" stroke="#000000" stroke-width="15" stroke-linecap="round" stroke-linejoin="round" stroke-miterlimit="10" stroke-dasharray="none" stroke-opacity="" data-original="#000000"></path><path d="m0 0-131.723 69.563c-13.804 7.285-9.779 7.285-23.583 0L-287.029 0c-12.501-6.576-10.686-6.406-17.915-17.858l-62.814-99.525c-4.479-7.087-1.531-16.299 6.208-20.381 7.71-4.082 17.432-1.531 21.883 5.527l59.413 94.139c6.859 10.828 5.867 10.517 17.715 16.782l112.987 59.641c6.888 3.656 5.187 3.656 12.075 0l112.986-59.641c11.849-6.265 10.857-5.954 17.717-16.782l59.412-94.139c4.479-7.058 14.173-9.609 21.911-5.527 7.711 4.082 10.659 13.294 6.208 20.381L17.915-17.858C10.687-6.406 12.5-6.576 0 0Z" style="stroke-width:15;stroke-linecap:round;stroke-linejoin:round;stroke-miterlimit:10;stroke-dasharray:none;stroke-opacity:1" transform="translate(377.366 329.318)" fill="none" stroke="#000000" stroke-width="15" stroke-linecap="round" stroke-linejoin="round" stroke-miterlimit="10" stroke-dasharray="none" stroke-opacity="" data-original="#000000"></path><path d="M147.963 7.5h171.804v154.886H147.963Z" style="stroke-width:15;stroke-linecap:round;stroke-linejoin:round;stroke-miterlimit:10;stroke-dasharray:none;stroke-opacity:1" fill="none" stroke="#000000" stroke-width="15" stroke-linecap="round" stroke-linejoin="round" stroke-miterlimit="10" stroke-dasharray="none" stroke-opacity="" data-original="#000000"></path><path d="m0 0 171.804-154.886" style="stroke-width:15;stroke-linecap:round;stroke-linejoin:round;stroke-miterlimit:10;stroke-dasharray:none;stroke-opacity:1" transform="translate(147.963 162.386)" fill="none" stroke="#000000" stroke-width="15" stroke-linecap="round" stroke-linejoin="round" stroke-miterlimit="10" stroke-dasharray="none" stroke-opacity="" data-original="#000000"></path><path d="m0 0-171.804-154.886" style="stroke-width:15;stroke-linecap:round;stroke-linejoin:round;stroke-miterlimit:10;stroke-dasharray:none;stroke-opacity:1" transform="translate(319.767 162.386)" fill="none" stroke="#000000" stroke-width="15" stroke-linecap="round" stroke-linejoin="round" stroke-miterlimit="10" stroke-dasharray="none" stroke-opacity="" data-original="#000000"></path><path d="M0 0h-92.322A6.388 6.388 0 0 1-98.7-6.378v-21.43a6.388 6.388 0 0 1 6.378-6.378h212.054c3.487 0 6.378 2.863 6.378 6.378v21.43c0 3.515-2.891 6.378-6.378 6.378H34.61" style="stroke-width:15;stroke-linecap:round;stroke-linejoin:round;stroke-miterlimit:10;stroke-dasharray:none;stroke-opacity:1" transform="translate(220.16 196.571)" fill="none" stroke="#000000" stroke-width="15" stroke-linecap="round" stroke-linejoin="round" stroke-miterlimit="10" stroke-dasharray="none" stroke-opacity="" data-original="#000000"></path><path d="M0 0c24.208 0 43.908 19.729 43.908 43.909 0 24.179-19.7 43.909-43.908 43.909-24.179 0-43.879-19.73-43.879-43.909C-43.879 19.729-24.179 0 0 0Z" style="stroke-width:15;stroke-linecap:round;stroke-linejoin:round;stroke-miterlimit:10;stroke-dasharray:none;stroke-opacity:1" transform="translate(233.851 230.219)" fill="none" stroke="#000000" stroke-width="15" stroke-linecap="round" stroke-linejoin="round" stroke-miterlimit="10" stroke-dasharray="none" stroke-opacity="" data-original="#000000"></path><path d="M0 0h99.919m-371.67 0h99.947" style="stroke-width:15;stroke-linecap:round;stroke-linejoin:round;stroke-miterlimit:10;stroke-dasharray:none;stroke-opacity:1" transform="translate(319.767 43.046)" fill="none" stroke="#000000" stroke-width="15" stroke-linecap="round" stroke-linejoin="round" stroke-miterlimit="10" stroke-dasharray="none" stroke-opacity="" data-original="#000000"></path><path d="M0 0v-76.536c0-2.778 2.268-5.074 5.074-5.074h361.522c2.806 0 5.074 2.296 5.074 5.074v200.864l-49.095 77.783c-6.86 10.828-5.867 10.516-17.716 16.781l-112.986 59.641c-6.888 3.657-5.187 3.657-12.076 0L66.811 218.892c-11.849-6.265-10.856-5.953-17.716-16.781L0 124.328V34.611" style="stroke-width:15;stroke-linecap:round;stroke-linejoin:round;stroke-miterlimit:10;stroke-dasharray:none;stroke-opacity:1" transform="translate(48.016 89.11)" fill="none" stroke="#000000" stroke-width="15" stroke-linecap="round" stroke-linejoin="round" stroke-miterlimit="10" stroke-dasharray="none" stroke-opacity="" data-original="#000000"></path></g></g></svg>