<svg xmlns="http://www.w3.org/2000/svg" version="1.1" xmlns:xlink="http://www.w3.org/1999/xlink" width="512" height="512" x="0" y="0" viewBox="0 0 128 128" style="enable-background:new 0 0 512 512" xml:space="preserve"><g><path d="M88.9 81h.7c1 0 1.7-.8 1.7-1.7 0-1-.8-1.7-1.7-1.7h-.7c-1 0-1.7.8-1.7 1.7 0 1 .8 1.7 1.7 1.7zM96.3 84.8h.7c1 0 1.7-.8 1.7-1.7s-.8-1.7-1.7-1.7h-.7c-1 0-1.7.8-1.7 1.7s.8 1.7 1.7 1.7zM90.6 85.6c-1 0-1.7.8-1.7 1.7s.8 1.7 1.7 1.7h.7c1 0 1.7-.8 1.7-1.7s-.8-1.7-1.7-1.7z" fill="#000000" opacity="1" data-original="#000000"></path><path d="M106.2 91.9c2.1-8.9-3.4-17.9-12.3-20C85.1 69.8 76.2 75.2 74 84c-7.6-2-15.3-3.1-23.2-3.2V61.1l45.8-20.8c.9-.4 1.3-1.4.9-2.3-.2-.4-.5-.7-.9-.9L50.8 16.3v-4.7h.6c3.1 0 5.7-2.6 5.7-5.7S54.5.2 51.4.2H36.9c-3.1 0-5.7 2.6-5.7 5.7s2.6 5.7 5.7 5.7h.6v69.9C15.6 84 .5 93.3.5 104.3c0 13.2 21.4 23.5 48.8 23.5 16.9 0 32.7-4.2 41.5-11 2.5.3 4.9.4 7.4.4 16.7 0 29.3-5.6 29.3-12.9 0-6-8.5-10.9-21.3-12.4zM50.8 20.1l40.9 18.6-40.9 18.6zm39.3 54.8c7.3 0 13.1 5.9 13.1 13.1 0 7.3-5.9 13.1-13.1 13.1-7.3 0-13.1-5.9-13.1-13.1-.1-7.2 5.8-13 13.1-13.1zm-64.4 29.4c0-2.1 4.5-4.9 11.8-6v12c-7.4-1.1-11.8-3.9-11.8-6zm25.1-6c7.3 1.1 11.8 3.8 11.8 6s-4.5 4.9-11.8 6zM34.7 5.9c0-1.2 1-2.2 2.2-2.2h14.5c1.2 0 2.2 1 2.2 2.2s-1 2.2-2.2 2.2H36.9c-1.2 0-2.2-1-2.2-2.2zm12.7 5.7v99.1c-2.1.1-4.3.1-6.4 0V11.6zm50.8 102.1c-2.6 0-5.1-.2-7.7-.5-.5-.1-.9.1-1.3.4-8 6.6-23.3 10.7-39.9 10.7-24.6 0-45.3-9.2-45.3-20.1 0-9 14-17 33.4-19.4v9.9c-9.3 1.3-15.3 4.9-15.3 9.5 0 4.8 6.5 8.6 16.7 9.7h.1a43.613 43.613 0 0 0 10.2 0h.1c10.2-1.1 16.7-4.9 16.7-9.7 0-4.6-5.9-8.2-15.3-9.5V84.2c7.7.1 15.3 1.1 22.6 3.2v.7c0 9.2 7.4 16.6 16.6 16.6 6.4 0 12.3-3.7 15-9.5 11.9 1.3 19 5.5 19 9.1.2 4.5-10.4 9.4-25.6 9.4z" fill="#000000" opacity="1" data-original="#000000"></path></g></svg>