<svg xmlns="http://www.w3.org/2000/svg" version="1.1" xmlns:xlink="http://www.w3.org/1999/xlink" width="512" height="512" x="0" y="0" viewBox="0 0 512 512" style="enable-background:new 0 0 512 512" xml:space="preserve" class=""><g><path d="M43.467 297v81.055h11.741a5 5 0 0 1 5 5v1.407H147v-1.407a5 5 0 0 1 5-5h22.922v-92.572h162.157v92.572H360a5 5 0 0 1 5 5v1.407h86.792v-1.407a5 5 0 0 1 5-5h11.741v-173.49H43.467V262" style="stroke-width:15;stroke-linecap:round;stroke-linejoin:round;stroke-miterlimit:10;" fill="none" stroke="#000000" stroke-width="15" stroke-linecap="round" stroke-linejoin="round" stroke-miterlimit="10" data-original="#000000" class=""></path><path d="M43.467 204.565h425.066v32.642H43.467z" style="stroke-width:15;stroke-linecap:round;stroke-linejoin:round;stroke-miterlimit:10;" fill="none" stroke="#000000" stroke-width="15" stroke-linecap="round" stroke-linejoin="round" stroke-miterlimit="10" data-original="#000000" class=""></path><path d="M174.922 203.564h162.157v210.38H174.922zM436.057 204.565l-54.193-104.356M499.009 196.702 424.238 89.631a606.917 606.917 0 0 1-100.767 19.989l43.09 94.944H494.91c4.042.001 6.414-4.548 4.099-7.862zM130.136 100.209 75.943 204.565M87.762 89.631 12.991 196.702c-2.315 3.314.057 7.863 4.099 7.863h128.348l43.09-94.944a606.826 606.826 0 0 1-100.766-19.99z" style="stroke-width:15;stroke-linecap:round;stroke-linejoin:round;stroke-miterlimit:10;" fill="none" stroke="#000000" stroke-width="15" stroke-linecap="round" stroke-linejoin="round" stroke-miterlimit="10" data-original="#000000" class=""></path><path d="M218 100.161h-21.956a5 5 0 0 0-4.553 2.934l-46.052 101.47h221.123l-46.052-101.47a5.001 5.001 0 0 0-4.553-2.934H253M134.73 334.972H83.658a5 5 0 0 1-5-5v-39.489a5 5 0 0 1 5-5h51.072a5 5 0 0 1 5 5v39.489a5 5 0 0 1-5 5zM428.342 334.972H377.27a5 5 0 0 1-5-5v-39.489a5 5 0 0 1 5-5h51.072a5 5 0 0 1 5 5v39.489a5 5 0 0 1-5 5zM60.208 384.462H147v29.483H60.208zM365 384.462h86.792v29.483H365zM60.208 413.945v-30.89a5 5 0 0 0-5-5h-22a5 5 0 0 0-5 5v30.89h32z" style="stroke-width:15;stroke-linecap:round;stroke-linejoin:round;stroke-miterlimit:10;" fill="none" stroke="#000000" stroke-width="15" stroke-linecap="round" stroke-linejoin="round" stroke-miterlimit="10" data-original="#000000" class=""></path><path d="M483.792 413.945v-30.89a5 5 0 0 0-5-5h-22a5 5 0 0 0-5 5v30.89h32zM337.078 413.945H365v-30.89a5 5 0 0 0-5-5h-22.922v35.89zM174.922 413.945v-35.89H152a5 5 0 0 0-5 5v30.89h27.922z" style="stroke-width:15;stroke-linecap:round;stroke-linejoin:round;stroke-miterlimit:10;" fill="none" stroke="#000000" stroke-width="15" stroke-linecap="round" stroke-linejoin="round" stroke-miterlimit="10" data-original="#000000" class=""></path><path d="M174.922 285.483h162.157v128.462H174.922z" style="stroke-width:15;stroke-linecap:round;stroke-linejoin:round;stroke-miterlimit:10;" fill="none" stroke="#000000" stroke-width="15" stroke-linecap="round" stroke-linejoin="round" stroke-miterlimit="10" data-original="#000000" class=""></path><path d="M174.922 285.483H256v128.462h-81.078zM419 443.428h80.5a5 5 0 0 0 5-5v-19.483a5 5 0 0 0-5-5h-487a5 5 0 0 0-5 5v19.483a5 5 0 0 0 5 5H384M87.762 89.631V68.572M424.238 89.631V68.572M252.922 143.631l-78 60.933h162.157l-78-60.933a5.001 5.001 0 0 0-6.157 0z" style="stroke-width:15;stroke-linecap:round;stroke-linejoin:round;stroke-miterlimit:10;" fill="none" stroke="#000000" stroke-width="15" stroke-linecap="round" stroke-linejoin="round" stroke-miterlimit="10" data-original="#000000" class=""></path></g></svg>