<svg xmlns="http://www.w3.org/2000/svg" version="1.1" xmlns:xlink="http://www.w3.org/1999/xlink" width="512" height="512" x="0" y="0" viewBox="0 0 512 512" style="enable-background:new 0 0 512 512" xml:space="preserve" class=""><g><path d="M426.669 462.452c-12.864 0-18.062 4.025-27.5 11.332-11.829 9.158-28.029 21.7-57.831 21.7-29.803 0-46.003-12.543-57.833-21.702-9.437-7.306-14.634-11.33-27.497-11.33-12.864 0-18.062 4.025-27.502 11.333-11.829 9.157-28.029 21.699-57.83 21.699-29.802 0-46.003-12.541-57.834-21.7-9.439-7.307-14.637-11.332-27.503-11.332s-18.065 4.025-27.506 11.333c-11.83 9.158-28.03 21.699-57.831 21.699V512c35.447 0 55.788-15.746 67.944-25.157 8.619-6.673 10.172-7.875 17.393-7.875s8.773 1.203 17.395 7.877C114.885 496.253 135.227 512 170.675 512s55.788-15.747 67.943-25.157c8.618-6.673 10.172-7.875 17.389-7.875 7.217 0 8.769 1.203 17.388 7.874 12.152 9.41 32.492 25.158 67.942 25.158 35.449 0 55.789-15.748 67.942-25.157 8.618-6.673 10.172-7.875 17.389-7.875 7.217 0 8.769 1.203 17.388 7.874C456.21 496.252 476.55 512 512 512v-16.516c-29.803 0-46.003-12.543-57.833-21.702-9.437-7.307-14.635-11.33-27.498-11.33z" fill="#000000" opacity="1" data-original="#000000" class=""></path><path d="m511.624 341.044.376-1.203V297.29h-66.065v-33.032c9.107 0 16.516-7.41 16.516-16.516v-16.516c0-9.107-7.41-16.516-16.516-16.516H313.806v-82.581h8.258c10.765 0 19.944-6.905 23.354-16.516h75.743c18.214 0 33.032-14.818 33.032-33.032 0-16.16-11.665-29.646-27.015-32.483-6.994-24.595-29.417-41.839-55.565-41.839-26.148 0-48.572 17.245-55.565 41.839-15.351 2.837-27.015 16.323-27.015 32.483 0 .069.004.137.004.205a647.732 647.732 0 0 0-66.501 5.065c.283-1.737.433-3.499.433-5.271 0-18.214-14.818-33.032-33.032-33.032-1.618 0-3.22.116-4.798.346-7.591-15.112-23.31-25.12-40.621-25.12-4.467 0-8.928.67-13.197 1.964C120.798 10.28 102.419 0 82.581 0 53.188 0 28.85 22.051 25.237 50.477 10.773 53.99 0 67.051 0 82.581c0 18.214 14.818 33.032 33.032 33.032h67.157c-29.65 9.79-58.59 21.696-86.494 35.648-12.218 6.108-17.188 21.018-11.08 33.237 4.224 8.449 12.717 13.698 22.166 13.698h.006c2.798-.001 5.6-.492 8.246-1.426v100.52H0v42.551l.376 1.204c11.224 35.916 32.782 68.037 61.515 92.122-10.197 3.605-17.516 9.263-24.279 14.498C27.363 455.598 18.511 462.452 0 462.452v16.516c24.157 0 36.677-9.693 47.723-18.244 10.25-7.935 19.102-14.788 37.613-14.788s27.363 6.853 37.613 14.788c11.046 8.551 23.566 18.244 47.724 18.244 24.156 0 36.675-9.693 47.721-18.244 10.249-7.935 19.101-14.788 37.611-14.788 18.509 0 27.361 6.853 37.61 14.788 11.045 8.551 23.564 18.244 47.72 18.244 24.155 0 36.675-9.693 47.72-18.244 10.249-7.935 19.101-14.788 37.611-14.788 18.509 0 27.361 6.853 37.61 14.788 11.045 8.551 23.564 18.244 47.72 18.244v-16.516c-18.509 0-27.361-6.853-37.61-14.788-6.762-5.236-14.081-10.894-24.28-14.499 28.736-24.085 50.293-56.205 61.518-92.121zm-82.205-43.754h-16.516v-33.032h16.516v33.032zm-115.613-33.032h16.516v33.032h-16.516v-33.032zm33.033 0h16.516v33.032h-16.516v-33.032zm33.032 0h16.516v33.032h-16.516v-33.032zm66.064-33.032v16.516H313.806v-16.516h132.129zM322.06 66.065l7.656.218 1.187-7.095c3.34-19.94 20.46-34.413 40.709-34.413 20.249 0 37.369 14.473 40.709 34.413l1.187 7.095 7.652-.218c9.107 0 16.516 7.41 16.516 16.516s-7.41 16.516-16.516 16.516h-75.743c-3.409-9.611-12.588-16.516-23.354-16.516h-16.516c.001-9.107 7.411-16.516 16.513-16.516zM33.032 99.097c-9.107 0-16.516-7.41-16.516-16.516s7.41-16.516 16.516-16.516h8.258v-8.258c0-22.767 18.523-41.29 41.29-41.29 16.063 0 30.789 9.44 37.516 24.049l3.603 7.823 7.665-3.928a28.556 28.556 0 0 1 13.152-3.17c12.772 0 24.182 8.559 27.747 20.814l2.605 8.957 8.575-3.672a16.4 16.4 0 0 1 6.492-1.325c9.107 0 16.516 7.41 16.516 16.516 0 2.788-.682 5.452-1.984 7.844a656.382 656.382 0 0 0-45.018 8.672H33.032zm-8.249 82.582h-.003a8.22 8.22 0 0 1-7.392-4.568c-2.037-4.072-.38-9.043 3.693-11.078 87.58-43.79 185.628-66.937 283.546-66.937h17.437c4.553 0 8.258 3.705 8.258 8.258s-3.705 8.258-8.258 8.258h-17.437c-95.367 0-190.861 22.543-276.158 65.191a8.29 8.29 0 0 1-3.686.876zm24.765 7.284c77.263-36.178 162.44-55.719 247.742-56.78V297.29h-16.516v-74.323c0-31.874-25.931-57.806-57.806-57.806s-57.806 25.932-57.806 57.806v74.323H49.548V188.963zm214.71 108.327h-82.581v-74.323c0-22.767 18.523-41.29 41.29-41.29s41.29 18.523 41.29 41.29v74.323zm231.226 16.516v16.516H16.516v-16.516h478.968zm-67.565 115.629c-.416-.006-.828-.016-1.25-.016-24.156 0-36.676 9.693-47.721 18.244-10.249 7.935-19.101 14.788-37.61 14.788s-27.361-6.853-37.61-14.788c-11.045-8.551-23.564-18.244-47.72-18.244s-36.675 9.693-47.721 18.244c-10.249 7.935-19.102 14.788-37.611 14.788-18.513 0-27.364-6.853-37.613-14.788-11.047-8.551-23.567-18.244-47.724-18.244-.425 0-.838.01-1.256.016-29.027-20.526-51.481-49.483-64.201-82.596H492.12c-12.72 33.112-35.173 62.069-64.201 82.596z" fill="#000000" opacity="1" data-original="#000000" class=""></path><path d="M66.065 198.194v66.065h82.581v-66.065H66.065zm66.064 49.548H82.581V214.71h49.548v33.032zM57.806 57.806h16.516c0-4.553 3.705-8.258 8.258-8.258V33.032c-13.659 0-24.774 11.114-24.774 24.774zM222.968 198.194c-13.66 0-24.774 11.113-24.774 24.774 0 13.661 11.114 24.774 24.774 24.774s24.774-11.113 24.774-24.774c0-13.661-11.114-24.774-24.774-24.774zm0 33.032c-4.553 0-8.258-3.705-8.258-8.258 0-4.553 3.705-8.258 8.258-8.258 4.553 0 8.258 3.705 8.258 8.258 0 4.553-3.705 8.258-8.258 8.258z" fill="#000000" opacity="1" data-original="#000000" class=""></path></g></svg>