<svg xmlns="http://www.w3.org/2000/svg" version="1.1" xmlns:xlink="http://www.w3.org/1999/xlink" width="512" height="512" x="0" y="0" viewBox="0 0 512 512" style="enable-background:new 0 0 512 512" xml:space="preserve" class=""><g><path d="M134.324 151.118c-18.766-11.002-43.13-7.008-72.421 11.874a6 6 0 0 0 2.735 11.02c12.77 1.103 25.201 2.183 38.481 5.435a43.364 43.364 0 0 0-5.135 2.575c-15.228 8.936-25.975 27.471-31.943 55.09a5.999 5.999 0 0 0 9.726 5.859c9.811-8.25 19.365-16.277 31.056-23.368a43.509 43.509 0 0 0-1.813 5.453c-4.447 17.086 1.06 37.792 16.368 61.542a6 6 0 0 0 11.02-2.735c1.81-20.945 3.55-40.974 14.938-65.344 11.117 25.275 21.245 56.98 24.214 113.425-45.453 11.091-81.626 30.989-99.057 56.227-1.232.453-2.46.937-3.68 1.486l-17.47 7.861c-10.91 4.91-21.971 4.91-32.881 0a6.001 6.001 0 0 0-4.924 10.944c13.977 6.289 28.751 6.289 42.729 0l17.469-7.861c10.909-4.909 21.973-4.911 32.88 0l17.472 7.861c13.977 6.29 28.751 6.29 42.728 0l17.471-7.861c10.911-4.91 21.973-4.909 32.88 0l17.471 7.861c13.977 6.289 28.752 6.289 42.729 0l17.47-7.861c10.907-4.908 21.97-4.909 32.879 0l17.471 7.861c13.978 6.291 28.753 6.289 42.729 0l17.471-7.861c10.911-4.91 21.973-4.909 32.88 0l17.471 7.861c6.988 3.145 14.176 4.718 21.364 4.718s14.375-1.573 21.363-4.718a6 6 0 0 0-4.924-10.944c-10.911 4.911-21.973 4.91-32.88 0l-17.471-7.861a56.34 56.34 0 0 0-3.686-1.488c-15.247-22.075-45.115-40.534-84.695-52.357 1.038-99.302 16.862-148.761 34.315-187.608 16.456 33.544 18.809 60.663 21.263 89.071a6.001 6.001 0 0 0 11.02 2.735c19.615-30.43 26.696-56.863 21.048-78.565a53.643 53.643 0 0 0-4.77-12.075c17.664 9.976 31.463 21.575 45.679 33.531a5.997 5.997 0 0 0 6.958.548 6 6 0 0 0 2.769-6.407c-7.647-35.388-21.331-59.086-40.672-70.438a53.819 53.819 0 0 0-11.872-5.177c19.529-5.428 37.477-6.981 55.971-8.579a6.001 6.001 0 0 0 2.735-11.02c-37.455-24.143-68.492-29.323-92.249-15.396a55.513 55.513 0 0 0-3.785 2.449c-1.861-10.552-6.714-20.231-14.381-28.457-12.967-13.911-34.043-24.1-62.644-30.28a5.998 5.998 0 0 0-6.407 2.769 5.998 5.998 0 0 0 .548 6.957c11.956 14.217 23.556 28.016 33.531 45.68a53.688 53.688 0 0 0-12.075-4.769c-21.704-5.65-48.137 1.432-78.566 21.047a6 6 0 0 0 2.735 11.02c18.495 1.597 36.443 3.151 55.973 8.579a53.819 53.819 0 0 0-11.872 5.177c-19.341 11.352-33.024 35.05-40.672 70.438a5.999 5.999 0 0 0 9.727 5.859c20.955-17.624 41.006-34.474 73.875-46.485-19.607 39.63-40.493 96.475-47.706 188.97-16.013-2.111-32.558-3.183-49.28-3.183-15.557 0-30.774.933-45.414 2.706-6.822-54.325-20.119-90.317-32.626-116.224 23.176 9.075 37.85 21.411 53.159 34.287a5.997 5.997 0 0 0 6.958.548 6 6 0 0 0 2.769-6.407c-5.968-27.618-16.715-46.153-31.942-55.09a43.364 43.364 0 0 0-5.135-2.575c13.28-3.252 25.711-4.332 38.482-5.435a6.001 6.001 0 0 0 2.735-11.02c-23.751-15.311-44.457-20.816-61.541-16.368a43.54 43.54 0 0 0-5.455 1.813c7.092-11.691 15.119-21.245 23.369-31.055a6.001 6.001 0 0 0-5.859-9.727c-22.284 4.815-38.741 12.79-48.913 23.703-5.586 5.993-9.287 12.959-11.002 20.539-.422-.264-.838-.529-1.266-.78zm-6.07 10.352c8.863 5.196 14.017 14.188 16.716 21.626-22.779-12.408-42.08-16.834-60.174-19.125 17.58-8.078 32.41-8.981 43.458-2.501zm-24.196 30.901c10.024-5.881 20.643-4.633 27.922-2.477 1.948.943 3.923 1.949 5.929 3.021-24.316 7.326-40.824 17.716-55.04 28.742 5.222-14.26 12.317-24.079 21.189-29.286zm18.291 71.4c-6.391-13.776-8.317-25.736-5.726-35.692 2.927-11.244 11.314-17.87 17.986-21.493a166.824 166.824 0 0 1 6.335-2.058c-12.013 22.373-16.339 41.394-18.595 59.243zm308.491-99.304c3.818 14.671.368 32.487-10.258 53.122-2.83-25.785-8.278-53.188-26.779-86.239a222.975 222.975 0 0 1 12.625 3.968c9.012 4.863 20.423 13.827 24.412 29.149zm15.503-47.514c13.074 7.673 23.233 22.711 30.31 44.816-20.232-16.233-43.461-31.757-79.916-42.045a223.507 223.507 0 0 1 11.745-6.127c9.81-2.931 24.215-4.653 37.861 3.356zm-33.272-40.169c6.771-3.971 14.415-5.952 22.904-5.952 11.974 0 25.628 3.944 40.872 11.816-26.183 2.872-54.034 8.433-87.773 27.629 3.01-10.606 10.062-25.322 23.997-33.493zm-20.985 2.314c-4.973 5.878-8.635 12.362-11.247 18.566-10.199-31.457-24.482-52.517-39.358-71.063 33.415 10.756 50.78 28.69 50.605 52.497zm-53.319-6.705c15.323 3.989 24.287 15.403 29.15 24.415a223.723 223.723 0 0 1 3.967 12.623c-33.052-18.502-60.455-23.951-86.24-26.78 20.635-10.627 38.451-14.078 53.123-10.258zm-22.635 44.56c13.646-8.009 28.05-6.287 37.861-3.356a223.507 223.507 0 0 1 11.745 6.127c-36.455 10.288-59.684 25.812-79.916 42.045 7.076-22.105 17.236-37.143 30.31-44.816zm52.975 14.278a253.666 253.666 0 0 1 9.305-2.417 252.989 252.989 0 0 1 3.616 6.094c-19.942 42.469-39.038 94.531-39.277 209.193-.002 1.34-.497 2.344-1.558 3.161-4.774 3.676-16.454 3.322-23.141-.703-1.354-.814-2.021-2.079-1.931-3.658 6.26-109.364 31.371-170.588 52.986-211.67zm-64.673 206.153a849.041 849.041 0 0 0-.292 4.83c-.348 6.039 2.539 11.507 7.723 14.627 5.198 3.129 12.372 5 19.411 5 6.381 0 12.652-1.538 17.239-5.071 2.9-2.233 4.843-5.203 5.711-8.587 28.789 8.984 52.223 21.907 66.987 36.774-6.984.086-13.963 1.645-20.754 4.701l-17.471 7.861c-10.91 4.91-21.971 4.91-32.881 0l-17.47-7.861c-13.977-6.29-28.751-6.291-42.728 0l-17.47 7.861c-10.91 4.91-21.973 4.91-32.881 0l-17.471-7.861c-13.975-6.29-28.751-6.291-42.728 0l-17.472 7.861c-10.906 4.91-21.971 4.91-32.879 0l-17.471-7.861c-6.792-3.057-13.773-4.615-20.759-4.701 12.656-12.768 31.704-24.145 55.192-32.781 31.976-11.758 70.022-17.973 110.027-17.973 16.456 0 32.718 1.075 48.437 3.181zm-105.736-10.832a336.47 336.47 0 0 0-15.271 2.74c-3.569-63.67-16.121-96.669-29.032-124.239a195.161 195.161 0 0 1 1.878-3.167c1.902.467 3.752.953 5.559 1.454 13.442 25.632 29.274 62.613 36.866 123.212zm4.133-134.181c8.871 5.207 15.966 15.026 21.188 29.286-14.215-11.026-30.723-21.416-55.04-28.742a167.504 167.504 0 0 1 5.93-3.022c7.283-2.157 17.899-3.404 27.922 2.478zm-16.364-34.135c9.956-2.59 21.914-.665 35.69 5.727-17.849 2.255-36.869 6.581-59.243 18.595a169.186 169.186 0 0 1 2.057-6.334c3.624-6.672 10.251-15.06 21.496-17.988zm-6.466-33.699c-9.926 12.805-19.332 27.48-26.449 48.039-1.867-3.748-4.209-7.497-7.073-10.964.091-19.233 15.736-30.492 33.522-37.075zm321.471 364.804a6.002 6.002 0 0 1-3.01 7.935c-6.988 3.145-14.176 4.718-21.363 4.718-7.188 0-14.376-1.573-21.364-4.718l-17.471-7.861c-10.907-4.909-21.969-4.91-32.88 0l-17.471 7.861c-13.976 6.289-28.751 6.291-42.729 0l-17.471-7.861c-10.909-4.909-21.972-4.909-32.879 0l-17.47 7.861c-13.977 6.289-28.752 6.289-42.729 0l-17.471-7.861c-10.907-4.909-21.969-4.91-32.88 0l-17.471 7.861c-13.977 6.29-28.751 6.29-42.728 0l-17.472-7.861c-10.907-4.91-21.971-4.91-32.88 0l-17.469 7.861c-13.979 6.289-28.753 6.289-42.729 0a6.001 6.001 0 0 1 4.924-10.944c10.91 4.91 21.971 4.91 32.881 0l17.47-7.861c13.976-6.289 28.751-6.291 42.729 0l17.471 7.861c10.908 4.91 21.973 4.91 32.879 0l17.472-7.861c13.977-6.291 28.753-6.29 42.728 0l17.471 7.861c10.908 4.91 21.971 4.91 32.881 0l17.47-7.861c13.977-6.291 28.751-6.29 42.728 0l17.47 7.861c10.91 4.91 21.971 4.91 32.881 0l17.471-7.861c13.977-6.291 28.751-6.29 42.728 0l17.471 7.861c10.907 4.91 21.969 4.911 32.88 0a6 6 0 0 1 7.932 3.009zm0-44.406a6.002 6.002 0 0 1-3.01 7.935c-13.974 6.289-28.75 6.289-42.728 0l-17.471-7.861c-10.907-4.909-21.969-4.91-32.88 0l-17.471 7.861c-13.976 6.289-28.751 6.291-42.729 0l-17.471-7.861c-10.909-4.909-21.972-4.908-32.879 0l-17.469 7.86c-13.977 6.291-28.753 6.29-42.729.001l-17.471-7.861c-10.907-4.909-21.969-4.91-32.88 0l-17.471 7.861c-6.987 3.145-14.177 4.717-21.363 4.717-7.188.001-14.375-1.571-21.364-4.717l-17.472-7.861c-10.907-4.91-21.971-4.91-32.88 0l-17.469 7.861c-13.979 6.289-28.754 6.289-42.729 0a6.002 6.002 0 0 1-3.01-7.934 6 6 0 0 1 7.934-3.01c10.908 4.908 21.973 4.908 32.881 0l17.47-7.861c13.976-6.289 28.751-6.291 42.729 0l17.471 7.861c10.908 4.91 21.973 4.91 32.879 0l17.472-7.861c13.977-6.291 28.753-6.289 42.728 0l17.472 7.861c10.907 4.91 21.971 4.91 32.88 0l17.47-7.861c13.977-6.291 28.751-6.289 42.728 0l17.47 7.861c10.91 4.91 21.971 4.91 32.881 0l17.471-7.861c13.977-6.291 28.751-6.289 42.728 0l17.472 7.861c10.907 4.908 21.97 4.91 32.879 0a5.998 5.998 0 0 1 7.931 3.009zM74.551 103.327c15.863 0 28.769-12.905 28.769-28.769 0-15.862-12.905-28.768-28.769-28.768-15.862 0-28.768 12.905-28.768 28.768 0 15.864 12.905 28.769 28.768 28.769zm0-45.536c9.246 0 16.769 7.521 16.769 16.768s-7.522 16.769-16.769 16.769-16.768-7.522-16.768-16.769 7.522-16.768 16.768-16.768zm-6-25.77V16.008a6 6 0 0 1 12 0v16.013a6 6 0 0 1-12 0zm31.838 16.701a5.997 5.997 0 0 1 0-8.484l11.322-11.322a5.997 5.997 0 0 1 8.484 0 5.997 5.997 0 0 1 0 8.484l-11.322 11.322c-1.171 1.172-2.707 1.758-4.242 1.758s-3.071-.586-4.242-1.758zm16.701 19.837h16.012a6 6 0 0 1 0 12H117.09a6 6 0 0 1 0-12zm-5.379 51.644-11.322-11.322a5.997 5.997 0 0 1 0-8.484 5.997 5.997 0 0 1 8.484 0l11.322 11.322a5.997 5.997 0 0 1 0 8.484c-1.171 1.172-2.707 1.758-4.242 1.758s-3.071-.586-4.242-1.758zm-37.16 18.906a6 6 0 0 1-6-6v-16.012a6 6 0 0 1 12 0v16.012a6 6 0 0 1-6 6zm-41.402-17.148a5.979 5.979 0 0 1-4.242-1.758 5.997 5.997 0 0 1 0-8.484l11.322-11.322a5.997 5.997 0 0 1 8.484 0 5.997 5.997 0 0 1 0 8.484l-11.322 11.322a5.975 5.975 0 0 1-4.242 1.758zM10 74.559a6 6 0 0 1 6-6h16.013a6 6 0 0 1 0 12H16a6 6 0 0 1-6-6zm18.907-37.16a5.997 5.997 0 0 1 0-8.484 5.997 5.997 0 0 1 8.484 0l11.322 11.322a5.997 5.997 0 0 1 0 8.484c-1.171 1.172-2.707 1.758-4.242 1.758s-3.071-.586-4.242-1.758z" fill="#000000" opacity="1" data-original="#000000"></path></g></svg>