<svg xmlns="http://www.w3.org/2000/svg" version="1.1" xmlns:xlink="http://www.w3.org/1999/xlink" width="512" height="512" x="0" y="0" viewBox="0 0 512 512" style="enable-background:new 0 0 512 512" xml:space="preserve" class=""><g><path d="M466.193 120.123c-25.557-12.947-60.728-23.232-101.968-29.852C354.901 39 309.921 0 256 0c-53.921 0-98.901 39-108.224 90.271-41.233 6.618-76.398 16.901-101.952 29.844C7.95 139.296.001 160.021.001 174.03c0 26.928 27.28 50.251 78.891 67.448 15.454 5.149 32.554 9.54 50.883 13.127 12.842 20.194 30.44 37.14 51.139 49.189 22.707 13.218 48.672 20.205 75.087 20.205 26.415 0 52.38-6.987 75.088-20.205 20.698-12.049 38.296-28.995 51.139-49.189 18.329-3.587 35.429-7.978 50.883-13.127 51.61-17.197 78.891-40.521 78.891-67.448-.004-14.006-7.952-34.728-45.809-53.907zm-300.194-10.124C166 60.374 206.374 20 256 20c49.626 0 90 40.374 90 89.999v35.243a8.533 8.533 0 0 1-6.31 8.227c-54.751 14.702-112.629 14.703-167.38 0a8.533 8.533 0 0 1-6.31-8.227v-35.243zM256 303.998c-37.632 0-73.345-16.67-97.725-44.608 30.542 4.33 63.627 6.608 97.725 6.608 34.099 0 67.184-2.277 97.725-6.608-24.382 27.938-60.094 44.608-97.725 44.608zm170.786-81.495c-15.641 5.212-33.079 9.618-51.858 13.156-.494.055-.983.14-1.462.268-35.461 6.573-75.62 10.072-117.466 10.072-41.848 0-82.01-3.499-117.47-10.072-.475-.126-.96-.21-1.449-.265-18.782-3.539-36.223-7.945-51.867-13.158-40.834-13.606-65.213-31.727-65.213-48.474 0-20.542 39.525-48.552 125.999-63.197v34.409c0 12.877 8.686 24.203 21.122 27.542a342.782 342.782 0 0 0 88.877 11.71 342.77 342.77 0 0 0 88.877-11.71c12.437-3.34 21.122-14.666 21.122-27.542v-34.409c86.476 14.645 125.999 42.656 125.999 63.197.002 16.746-24.377 34.867-65.211 48.473zM450.344 315.558c-16.542 0-30 13.458-30 30s13.458 30 30 30 30-13.458 30-30-13.458-30-30-30zm0 40c-5.514 0-10-4.486-10-10s4.486-10 10-10 10 4.486 10 10-4.486 10-10 10z" fill="#000000" opacity="1" data-original="#000000"></path><path d="M263.069 209.929a10.073 10.073 0 0 0-7.069-2.93c-2.63 0-5.21 1.07-7.07 2.93s-2.93 4.44-2.93 7.07 1.069 5.21 2.93 7.07a10.077 10.077 0 0 0 7.07 2.93c2.63 0 5.21-1.07 7.069-2.93 1.86-1.86 2.931-4.44 2.931-7.07s-1.07-5.21-2.931-7.07zM81.241 155.869a10.08 10.08 0 0 0-7.07-2.93c-2.64 0-5.21 1.07-7.07 2.93a10.062 10.062 0 0 0-2.93 7.07c0 2.63 1.07 5.21 2.93 7.07s4.431 2.93 7.07 2.93c2.63 0 5.2-1.07 7.07-2.93a10.08 10.08 0 0 0 2.93-7.07c0-2.64-1.07-5.21-2.93-7.07zM444.898 155.859a10.046 10.046 0 0 0-7.069-2.92c-2.63 0-5.21 1.06-7.07 2.92a10.1 10.1 0 0 0-2.93 7.08c0 2.63 1.069 5.21 2.93 7.07a10.077 10.077 0 0 0 7.07 2.93c2.64 0 5.21-1.07 7.069-2.93a10.077 10.077 0 0 0 2.931-7.07c0-2.64-1.07-5.21-2.931-7.08zM370.739 199.299a10.085 10.085 0 0 0-7.07-2.92c-2.641 0-5.21 1.06-7.07 2.92a10.05 10.05 0 0 0-2.93 7.07c0 2.64 1.06 5.22 2.93 7.08 1.86 1.86 4.43 2.93 7.07 2.93 2.63 0 5.21-1.07 7.07-2.93a10.103 10.103 0 0 0 2.93-7.08c0-2.62-1.07-5.2-2.93-7.07zM155.399 199.299a10.056 10.056 0 0 0-7.069-2.93c-2.63 0-5.21 1.07-7.07 2.93a10.093 10.093 0 0 0-2.93 7.07c0 2.64 1.069 5.22 2.93 7.07 1.86 1.87 4.44 2.94 7.07 2.94a10.021 10.021 0 0 0 10-10.01c0-2.62-1.061-5.2-2.931-7.07zM196.334 99.781c-5.523 0-10 4.511-10 10.034l-.001.184c0 5.523 4.477 9.967 10 9.967s10-4.511 10-10.034l.001-.184c0-5.523-4.478-9.967-10-9.967zM256 40.333c-22.345 0-43.49 10.837-56.563 28.99-3.228 4.482-2.213 10.731 2.27 13.959a9.955 9.955 0 0 0 5.835 1.886 9.99 9.99 0 0 0 8.123-4.157C224.99 68.063 240.069 60.333 256 60.333c5.522 0 10-4.477 10-10s-4.478-10-10-10zM159.492 299.411c-5.176-1.931-10.935.704-12.862 5.878l-72 193.216c-1.929 5.176.703 10.935 5.878 12.862A9.967 9.967 0 0 0 84 512c4.056 0 7.872-2.487 9.371-6.511l72-193.216c1.927-5.175-.704-10.934-5.879-12.862zM437.369 498.505l-72-193.216c-1.928-5.175-7.685-7.81-12.862-5.878-5.175 1.928-7.807 7.687-5.878 12.862l72 193.216A10.002 10.002 0 0 0 428 512c1.16 0 2.34-.203 3.491-.633 5.175-1.928 7.807-7.687 5.878-12.862zM256 387.913c-5.522 0-10 4.478-10 10v77.085c0 5.522 4.478 10 10 10s10-4.478 10-10v-77.085c0-5.522-4.478-10-10-10zM263.069 349.928a10.069 10.069 0 0 0-7.069-2.93c-2.63 0-5.21 1.069-7.07 2.93-1.86 1.861-2.93 4.44-2.93 7.07s1.069 5.21 2.93 7.069a10.077 10.077 0 0 0 7.07 2.931c2.63 0 5.21-1.07 7.069-2.931 1.86-1.859 2.931-4.439 2.931-7.069s-1.07-5.21-2.931-7.07zM83.034 349.927l-32.98-32.981a10.001 10.001 0 0 0-14.142 0L2.929 349.927c-3.905 3.905-3.905 10.237 0 14.143l32.981 32.981a10.003 10.003 0 0 0 14.142 0l32.98-32.981c3.907-3.906 3.907-10.238.002-14.143zm-40.052 25.91-18.839-18.839 18.839-18.839 18.839 18.839-18.839 18.839zM501.998 20h-9.683V10c0-5.523-4.478-10-10-10s-10 4.477-10 10v10h-9.682c-5.522 0-10 4.477-10 10s4.478 10 10 10h9.682v10c0 5.523 4.478 10 10 10s10-4.477 10-10V40h9.683c5.522 0 10-4.477 10-10s-4.478-10-10-10zM71.07 33.93A10.073 10.073 0 0 0 64.001 31c-2.629 0-5.21 1.07-7.07 2.93s-2.93 4.44-2.93 7.07c0 2.64 1.069 5.21 2.93 7.07a10.077 10.077 0 0 0 7.07 2.93c2.63 0 5.21-1.07 7.069-2.93 1.86-1.86 2.931-4.44 2.931-7.07s-1.07-5.21-2.931-7.07zM509.067 454.867a10.074 10.074 0 0 0-7.069-2.931c-2.63 0-5.21 1.07-7.07 2.931a10.072 10.072 0 0 0-2.93 7.069c0 2.63 1.069 5.21 2.93 7.07 1.861 1.86 4.44 2.93 7.07 2.93s5.21-1.069 7.069-2.93a10.077 10.077 0 0 0 2.931-7.07c0-2.63-1.07-5.21-2.931-7.069z" fill="#000000" opacity="1" data-original="#000000"></path></g></svg>