<svg xmlns="http://www.w3.org/2000/svg" version="1.1" xmlns:xlink="http://www.w3.org/1999/xlink" width="512" height="512" x="0" y="0" viewBox="0 0 314 314" style="enable-background:new 0 0 512 512" xml:space="preserve"><g><path d="M240.206 103.546c-23.505-1.487-39.148-16.783-44.226-31.281-15.02-42.909-52.777-70.634-96.191-70.634-26.011 0-50.57 9.463-69.152 26.644C12.061 45.449 1.222 68.693.119 93.724a7.702 7.702 0 0 0-.007.303L0 238.399a7.002 7.002 0 0 0 2.048 4.954 6.991 6.991 0 0 0 3.979 1.976v60.04a7 7 0 0 0 7 7h287.945a7 7 0 0 0 7-7v-60.153a6.999 6.999 0 0 0 5.425-6.725c.007-.461.603-47.226.603-64.135 0-37.705-31.725-68.146-73.794-70.81zM14.112 94.192c.976-21.264 10.216-41.019 26.028-55.638C56.128 23.772 77.311 15.63 99.788 15.63c37.38 0 69.951 24.046 82.978 61.26 6.604 18.859 26.651 38.735 56.554 40.628 34.594 2.19 60.68 26.626 60.68 56.838 0 12.896-.35 43.331-.516 57.044l-285.479.005.107-137.213zm279.861 204.177H20.027v-52.964h12.321v30.332a7 7 0 1 0 14 0v-30.332h7.022v30.332a7 7 0 1 0 14 0v-30.332h7.023v30.332a7 7 0 1 0 14 0v-30.332h19.657v30.332a7 7 0 1 0 14 0v-30.332h7.022v30.332a7 7 0 1 0 14 0v-30.332h22.8v30.332a7 7 0 1 0 14 0v-30.332h7.024v30.332a7 7 0 1 0 14 0v-30.332h7.023v30.332a7 7 0 1 0 14 0v-30.332h21.445v30.332a7 7 0 1 0 14 0v-30.332h7.023v30.332a7 7 0 1 0 14 0v-30.332h15.584v52.964z" fill="#000000" opacity="1" data-original="#000000"></path></g></svg>