<svg xmlns="http://www.w3.org/2000/svg" version="1.1" xmlns:xlink="http://www.w3.org/1999/xlink" width="512" height="512" x="0" y="0" viewBox="0 0 24 24" style="enable-background:new 0 0 512 512" xml:space="preserve" class=""><g><path d="M12 1a11 11 0 1 0 11 11A11.012 11.012 0 0 0 12 1zm0 20a9 9 0 1 1 9-9 9.01 9.01 0 0 1-9 9z" fill="#39a2c9" opacity="1" data-original="#000000" class=""></path><path d="M14.707 7.293a1 1 0 0 0-1.414 0l-4 4a1 1 0 0 0 0 1.414l4 4a1 1 0 0 0 1.414-1.414L11.414 12l3.293-3.293a1 1 0 0 0 0-1.414z" fill="#39a2c9" opacity="1" data-original="#000000" class=""></path></g></svg>