<svg xmlns="http://www.w3.org/2000/svg" version="1.1" xmlns:xlink="http://www.w3.org/1999/xlink" width="512" height="512" x="0" y="0" viewBox="0 0 24 24" style="enable-background:new 0 0 512 512" xml:space="preserve" class=""><g><g fill="#010101"><path d="M60.048-7.767h-.165v-.446a2.087 2.087 0 0 0-1.781-2.062v-.609a.35.35 0 1 0-.702 0v.625a2.088 2.088 0 0 0-1.687 2.046v.446h-.165a.35.35 0 0 0-.351.351v1.406a.35.35 0 0 0 .351.351h.165v3.75H54.599a1.1 1.1 0 0 0-1.046-1.433h-.223c.471-1.32-.031-2.761-1.356-3.729l-2.731-1.997c.264-.155.483-.385.626-.672a.366.366 0 0 0-.376-.526c-.219.029-.501-.132-.717-.41-.228-.294-.326-.652-.238-.871a.366.366 0 0 0-.406-.496 1.612 1.612 0 0 0-.524 2.976l-.367.268-2.363 1.727c-1.325.969-1.827 2.409-1.356 3.729h-.223a1.1 1.1 0 0 0-1.046 1.433H41.14v-3.75h.165a.35.35 0 0 0 .351-.351v-1.405a.35.35 0 0 0-.351-.351h-.165v-.446c0-1.013-.727-1.86-1.687-2.046v-.625a.35.35 0 1 0-.702 0v.609a2.087 2.087 0 0 0-1.78 2.062v.446h-.165a.35.35 0 0 0-.351.351v1.406a.35.35 0 0 0 .351.351h.165v16.051a.35.35 0 0 0 .351.351h22.212a.35.35 0 0 0 .351-.351V-5.66h.165a.35.35 0 0 0 .351-.351v-1.405a.354.354 0 0 0-.353-.351zm-3.632-.446a1.384 1.384 0 0 1 2.766 0v.446h-2.766zm-8.869-2.246c0-.24.096-.46.255-.62.054.288.189.583.398.851.188.242.409.428.643.546a.893.893 0 0 1-.416.103h-.001a.88.88 0 0 1-.879-.88zM45.31-6.48l2.365-1.729.752-.55 3.117 2.279c1.146.838 1.523 2.051.994 3.137h-8.222c-.529-1.086-.153-2.299.994-3.137zm-2.011 3.87h10.256a.366.366 0 0 1 .147.7h-10.55a.365.365 0 0 1 .147-.7zm-2.16 1.402H55.714V.297H41.139zm-3.467-7.005a1.384 1.384 0 0 1 2.766 0v.446h-2.766zm2.766 18.253h-2.766v-15.7h2.766zm.515-16.401h-3.797v-.704h3.797zm5.294 16.401V5.892c0-.98.383-1.843 1.138-2.564a4.712 4.712 0 0 1 1.041-.748c.499.26 2.18 1.288 2.18 3.312v4.148zm5.062 0V5.892c0-1.172-.475-2.24-1.375-3.09a5.153 5.153 0 0 0-1.369-.935.355.355 0 0 0-.275 0 5.14 5.14 0 0 0-1.369.935c-.9.85-1.375 1.918-1.375 3.09v4.148h-4.407V1.097h14.575v8.943zm7.873-3.838v3.838h-2.766v-15.7h2.766zm.516-12.563h-3.797v-.704h3.797z" fill="#010101" opacity="1" data-original="#010101"></path><path d="M53.831 3.367a.355.355 0 0 0-.275 0c-.057.024-1.399.612-1.399 2.057v2.108a.35.35 0 0 0 .351.351h2.371a.35.35 0 0 0 .351-.351V5.424c0-1.445-1.342-2.033-1.399-2.057zm.698 3.814h-1.67V5.424c0-.759.565-1.182.835-1.34.268.158.835.582.835 1.34zM43.298 3.367a.355.355 0 0 0-.275 0c-.057.024-1.399.612-1.399 2.057v2.108a.35.35 0 0 0 .351.351h2.371a.35.35 0 0 0 .351-.351V5.424c0-1.445-1.342-2.033-1.399-2.057zm.697 3.814h-1.67V5.424c0-.759.566-1.182.835-1.34.268.158.835.582.835 1.34zM42.204-.855a.397.397 0 1 0 0 .795.397.397 0 0 0 0-.795zM44.278-.855a.397.397 0 1 0 0 .795.397.397 0 0 0 0-.795zM46.352-.855a.397.397 0 1 0 0 .795.397.397 0 0 0 0-.795zM48.427-.855a.397.397 0 1 0 0 .795.397.397 0 0 0 0-.795zM50.501-.855a.397.397 0 1 0 0 .795.397.397 0 0 0 0-.795zM52.576-.855a.397.397 0 1 0 0 .795.397.397 0 0 0 0-.795zM54.65-.855a.397.397 0 1 0 0 .795.397.397 0 0 0 0-.795zM57.799-1.21a.4.4 0 0 0 .4-.4v-1.526a.4.4 0 0 0-.8 0v1.526a.4.4 0 0 0 .4.4zM57.799 4.896a.4.4 0 0 0 .4-.4V2.97a.4.4 0 0 0-.8 0v1.526a.4.4 0 0 0 .4.4zM39.055-1.21a.4.4 0 0 0 .4-.4v-1.526a.4.4 0 0 0-.8 0v1.526a.4.4 0 0 0 .4.4zM39.055 4.896a.4.4 0 0 0 .4-.4V2.97a.4.4 0 0 0-.8 0v1.526a.4.4 0 0 0 .4.4z" fill="#010101" opacity="1" data-original="#010101"></path></g><path d="M23.62 4.886h-.165V4.44a2.087 2.087 0 0 0-1.781-2.062v-.609a.35.35 0 1 0-.702 0v.625a2.088 2.088 0 0 0-1.687 2.046v.446h-.165a.35.35 0 0 0-.351.351v1.406a.35.35 0 0 0 .351.351h.165v3.75H18.171a1.1 1.1 0 0 0-1.046-1.433h-.223c.471-1.32-.031-2.761-1.356-3.729l-2.731-1.997c.264-.155.483-.385.626-.672a.366.366 0 0 0-.376-.526c-.219.029-.501-.132-.717-.41-.228-.294-.326-.652-.238-.871a.366.366 0 0 0-.406-.496 1.612 1.612 0 0 0-.524 2.976l-.367.268L8.45 5.581C7.125 6.55 6.623 7.99 7.094 9.31h-.223a1.1 1.1 0 0 0-1.046 1.433H4.712v-3.75h.165a.35.35 0 0 0 .351-.351V5.237a.35.35 0 0 0-.351-.351h-.165V4.44c0-1.013-.727-1.86-1.687-2.046v-.625a.35.35 0 1 0-.702 0v.609A2.087 2.087 0 0 0 .543 4.44v.446H.378a.35.35 0 0 0-.351.351v1.406a.35.35 0 0 0 .351.351h.165v16.051a.35.35 0 0 0 .351.351h22.212a.35.35 0 0 0 .351-.351V6.993h.165a.35.35 0 0 0 .351-.351V5.237a.354.354 0 0 0-.353-.351zm-3.632-.446a1.384 1.384 0 0 1 2.766 0v.446h-2.766zm-8.869-2.246c0-.24.096-.46.255-.62.054.288.189.583.398.851.188.242.409.428.643.546a.893.893 0 0 1-.416.103h-.001a.88.88 0 0 1-.879-.88zM8.882 6.173l2.365-1.729.752-.55 3.117 2.279c1.146.838 1.523 2.051.994 3.137H7.888c-.529-1.086-.153-2.299.994-3.137zm-2.011 3.87h10.256a.366.366 0 0 1 .147.7H6.724a.365.365 0 0 1 .147-.7zm-2.16 1.402H19.286v1.505H4.711zM1.244 4.44a1.384 1.384 0 0 1 2.766 0v.446H1.244zM4.01 22.693H1.244v-15.7H4.01zm.515-16.401H.728v-.704h3.797zm5.294 16.401v-4.148c0-.98.383-1.843 1.138-2.564a4.712 4.712 0 0 1 1.041-.748c.499.26 2.18 1.288 2.18 3.312v4.148zm5.062 0v-4.148c0-1.172-.475-2.24-1.375-3.09a5.153 5.153 0 0 0-1.369-.935.355.355 0 0 0-.275 0 5.14 5.14 0 0 0-1.369.935c-.9.85-1.375 1.918-1.375 3.09v4.148H4.711V13.75h14.575v8.943zm7.873-3.838v3.838h-2.766v-15.7h2.766zm.516-12.563h-3.797v-.704h3.797z" fill="#000000" opacity="1" data-original="#000000"></path><path d="M17.403 16.02a.355.355 0 0 0-.275 0c-.057.024-1.399.612-1.399 2.057v2.108a.35.35 0 0 0 .351.351h2.371a.35.35 0 0 0 .351-.351v-2.108c0-1.445-1.342-2.033-1.399-2.057zm.698 3.814h-1.67v-1.757c0-.759.565-1.182.835-1.34.268.158.835.582.835 1.34zM6.87 16.02a.355.355 0 0 0-.275 0c-.057.024-1.399.612-1.399 2.057v2.108a.35.35 0 0 0 .351.351h2.371a.35.35 0 0 0 .351-.351v-2.108c0-1.445-1.342-2.033-1.399-2.057zm.697 3.814h-1.67v-1.757c0-.759.566-1.182.835-1.34.268.158.835.582.835 1.34zM5.776 11.798a.397.397 0 1 0 0 .795.397.397 0 0 0 0-.795zM7.85 11.798a.397.397 0 1 0 0 .795.397.397 0 0 0 0-.795zM9.924 11.798a.397.397 0 1 0 0 .795.397.397 0 0 0 0-.795zM11.999 11.798a.397.397 0 1 0 0 .795.397.397 0 0 0 0-.795zM14.073 11.798a.397.397 0 1 0 0 .795.397.397 0 0 0 0-.795zM16.148 11.798a.397.397 0 1 0 0 .795.397.397 0 0 0 0-.795zM18.222 11.798a.397.397 0 1 0 0 .795.397.397 0 0 0 0-.795zM21.371 10.28a.4.4 0 0 0 .4-.4V8.354a.4.4 0 0 0-.8 0V9.88a.4.4 0 0 0 .4.4zM2.627 10.28a.4.4 0 0 0 .4-.4V8.354a.4.4 0 0 0-.8 0V9.88a.4.4 0 0 0 .4.4zM21.371 15.785a.4.4 0 0 0 .4-.4v-1.526a.4.4 0 0 0-.8 0v1.526a.4.4 0 0 0 .4.4zM2.627 15.785a.4.4 0 0 0 .4-.4v-1.526a.4.4 0 0 0-.8 0v1.526a.4.4 0 0 0 .4.4zM21.371 21.289a.4.4 0 0 0 .4-.4v-1.526a.4.4 0 0 0-.8 0v1.526a.4.4 0 0 0 .4.4zM2.627 21.289a.4.4 0 0 0 .4-.4v-1.526a.4.4 0 0 0-.8 0v1.526a.4.4 0 0 0 .4.4z" fill="#000000" opacity="1" data-original="#000000"></path></g></svg>