<svg xmlns="http://www.w3.org/2000/svg" version="1.1" xmlns:xlink="http://www.w3.org/1999/xlink" width="512" height="512" x="0" y="0" viewBox="0 0 409.783 409.783" style="enable-background:new 0 0 512 512" xml:space="preserve" class=""><g><path d="M391.198 81.161c-1.915-3.948-5.765-6.415-10.056-6.415h-1.638v-6.108c0-7.47-6.328-13.553-14.111-13.553h-37.939V25.112l77.988-14.915a5.123 5.123 0 0 0 4.07-5.99c-.532-2.78-3.231-4.582-5.99-4.065L4.161 76.517a5.123 5.123 0 0 0-4.07 5.99 5.122 5.122 0 0 0 5.986 4.065L82.421 71.97v25.262h-37.94c-7.782 0-14.111 6.083-14.111 13.553v6.108h-1.638c-4.291 0-8.141 2.463-10.056 6.431C13.09 134.946.09 165.032.09 193.381c0 26.926 11.786 51.2 17.444 62.868l1.142 2.355c1.9 3.989 5.76 6.467 10.066 6.467h117.596c4.301 0 8.156-2.473 10.071-6.467l1.152-2.381c5.652-11.663 17.428-35.942 17.428-62.848 0-28.36-12.995-58.44-18.581-70.062-1.915-3.963-5.765-6.431-10.056-6.431h-1.638v-6.108c0-7.47-6.328-13.553-14.111-13.553H92.666V70l224.543-42.941v28.017H279.27c-7.782 0-14.111 6.083-14.111 13.553v6.108h-1.638c-4.291 0-8.141 2.463-10.056 6.431-5.586 11.622-18.586 41.708-18.586 70.057 0 28.344 12.995 58.639 18.586 70.344 1.905 3.988 5.76 6.467 10.071 6.467h117.591c4.311 0 8.166-2.478 10.071-6.467 5.591-11.709 18.586-41.999 18.586-70.344-.001-28.351-13.001-58.441-18.586-70.064zm-244.839 45.973c.323 0 .63.235.819.635 4.122 8.571 17.572 38.625 17.572 65.618 0 24.555-11.08 47.401-16.404 58.378l-1.172 2.432c-.189.394-.512.64-.835.64H28.748c-.323 0-.635-.236-.824-.64l-1.167-2.417c-5.33-10.982-16.42-33.828-16.42-58.399 0-26.982 13.45-57.047 17.577-65.613.189-.399.502-.635.824-.635h117.621zm-15.754-19.661c2.135 0 3.871 1.485 3.871 3.313v6.108h-93.86v-6.108c0-1.828 1.736-3.313 3.871-3.313h86.118zm144.794-38.835c0-1.828 1.736-3.313 3.871-3.313h86.118c2.135 0 3.871 1.485 3.871 3.313v6.108h-93.86v-6.108zm106.557 148.536c-.189.399-.502.64-.829.64H263.535c-.323 0-.64-.246-.829-.64-4.127-8.643-17.587-38.948-17.587-65.935 0-26.982 13.45-57.047 17.577-65.613.189-.399.502-.635.824-.635h117.622c.323 0 .635.236.824.635 4.127 8.571 17.577 38.636 17.577 65.618-.005 26.982-13.46 57.282-17.587 65.93z" fill="#000000" opacity="1" data-original="#000000" class=""></path><path d="M306.349 94.13h-25.39a9.856 9.856 0 0 0-8.796 5.361c-3.948 7.685-12.088 30.495-12.088 51.907a5.119 5.119 0 0 0 5.12 5.12h41.155a5.119 5.119 0 0 0 5.12-5.12V99.25a5.12 5.12 0 0 0-5.121-5.12zm-5.12 52.147h-30.751c1.111-17.649 7.526-35.625 10.691-41.907h20.06v41.907zM372.489 99.486a9.849 9.849 0 0 0-8.791-5.356h-25.39a5.119 5.119 0 0 0-5.12 5.12v52.147a5.119 5.119 0 0 0 5.12 5.12h41.16a5.119 5.119 0 0 0 5.12-5.12c0-21.406-8.151-44.211-12.099-51.911zm-29.056 46.791V104.37h20.06c3.169 6.298 9.585 24.269 10.696 41.907h-30.756zM71.561 136.278H46.176c-3.732 0-7.107 2.058-8.796 5.366-3.948 7.69-12.093 30.495-12.093 51.907a5.115 5.115 0 0 0 5.12 5.115h41.155a5.119 5.119 0 0 0 5.12-5.12v-52.147a5.12 5.12 0 0 0-5.121-5.121zm-5.12 52.152H35.69c1.111-17.644 7.521-35.604 10.701-41.912h20.05v41.912zM137.712 141.649a9.835 9.835 0 0 0-8.801-5.371h-25.385a5.119 5.119 0 0 0-5.12 5.12v52.152a5.115 5.115 0 0 0 5.12 5.115h41.155a5.119 5.119 0 0 0 5.12-5.12c-.001-21.437-8.152-44.226-12.089-51.896zm-29.067 46.781v-41.912h20.05c3.174 6.287 9.59 24.248 10.701 41.912h-30.751zM409.251 402.339 342.44 266.29a5.123 5.123 0 0 0-4.567-2.862c-1.7.067-3.727 1.075-4.598 2.811l-54.164 107.172-68.915-138.967a5.125 5.125 0 0 0-4.567-2.847h-.021a5.12 5.12 0 0 0-4.572 2.811L124.773 385.32 70.86 278.629a5.131 5.131 0 0 0-4.572-2.811h-.026a5.118 5.118 0 0 0-4.567 2.857L.711 402.334a5.116 5.116 0 0 0 4.587 7.383 5.111 5.111 0 0 0 4.593-2.857l15.114-30.643 9.661 17.224c.906 1.613 2.616 2.616 4.465 2.616s3.558-.998 4.465-2.611l9.528-16.973 9.513 16.973a5.122 5.122 0 0 0 8.93.005l9.528-16.983 9.544 16.983a5.13 5.13 0 0 0 4.465 2.611 5.132 5.132 0 0 0 4.465-2.611l9.385-16.707 10.071 19.932-2.836 5.617a5.121 5.121 0 0 0 2.258 6.881 5.114 5.114 0 0 0 6.881-2.258l37.596-74.394 9.385 16.712c1.812 3.226 7.122 3.226 8.929 0l9.539-16.983 9.528 16.978c1.812 3.231 7.122 3.231 8.929 0l9.518-16.973 9.523 16.973a5.119 5.119 0 0 0 8.93 0l9.8-17.464 37.253 75.121a5.191 5.191 0 0 0 4.613 2.831 5.116 5.116 0 0 0 4.577-7.393l-8.653-17.454 10.373-20.526 9.385 16.712c1.812 3.226 7.122 3.226 8.929 0l9.539-16.983 9.528 16.978c1.812 3.231 7.122 3.231 8.929 0l9.518-16.973 9.523 16.973a5.119 5.119 0 0 0 8.93 0l9.564-17.044 21.043 42.844a5.14 5.14 0 0 0 4.608 2.867 5.123 5.123 0 0 0 4.587-7.379zM95.113 380.487l-9.544-16.983c-1.818-3.231-7.122-3.226-8.929 0l-9.528 16.973-9.513-16.973a5.122 5.122 0 0 0-8.93-.005l-9.528 16.973-8.632-15.396 35.845-72.678 37.059 73.329-8.3 14.76zm137.646-44.237-9.523-16.973c-1.812-3.231-7.122-3.231-8.929 0l-9.518 16.973-9.528-16.973c-.906-1.613-2.616-2.616-4.465-2.616s-3.558.998-4.465 2.611l-9.539 16.983-8.289-14.756 37.069-73.349 35.953 72.494-8.766 15.606zm132.234 31.836-9.523-16.973c-1.812-3.231-7.122-3.231-8.929 0l-9.518 16.973-9.528-16.973c-.906-1.613-2.616-2.616-4.465-2.616s-3.558.998-4.465 2.611l-9.539 16.983-8.289-14.756 37.043-73.308 35.763 72.822-8.55 15.237z" fill="#000000" opacity="1" data-original="#000000" class=""></path></g></svg>