<svg xmlns="http://www.w3.org/2000/svg" version="1.1" xmlns:xlink="http://www.w3.org/1999/xlink" width="512" height="512" x="0" y="0" viewBox="0 0 507.219 507.219" style="enable-background:new 0 0 512 512" xml:space="preserve" class=""><g><path d="M498.392 416.625c-13.825.386-36.022.846-63.26.846-32.516 0-63.841-10.423-88.207-29.35a7.5 7.5 0 0 0-9.201 11.846c26.984 20.961 61.577 32.504 97.408 32.504 27.41 0 49.758-.463 63.678-.852a7.5 7.5 0 0 0 7.288-7.707c-.115-4.14-3.575-7.39-7.706-7.287zM58.964 316.5a7.5 7.5 0 0 0-10.191 2.938c-17.156 31.058-33.03 65.667-47.181 102.866a7.5 7.5 0 0 0 7.009 10.168 7.505 7.505 0 0 0 7.011-4.835c13.9-36.541 29.476-70.503 46.292-100.946a7.501 7.501 0 0 0-2.94-10.191zM448.966 273.958a7.5 7.5 0 0 0-8.875-3.035c-.199.072-20.266 6.964-32.999-.778-6.109-3.715-9.715-10.307-11.022-20.154a7.501 7.501 0 0 0-11.826-5.092c-.056.041-5.837 4.119-13.469 6.144-9.559 2.535-17.19.78-23.336-5.367a7.5 7.5 0 0 0-10.607 10.606c9.972 9.971 23.039 13.171 37.789 9.258 3.29-.873 6.306-2.017 8.902-3.182 3.013 9.147 8.295 16.055 15.776 20.604 10.005 6.084 21.893 6.444 31.065 5.364-.153 6.606 2.682 13.432 8.45 19.201 5.871 5.871 13.931 9.538 22.112 10.062.67.043 1.37.067 2.1.067 4.934 0 11.159-1.114 17.48-5.16 2.148-1.375 9.248-9.446 11.366-13.811 4.404-9.077 11.279-26.004 13.527-46.902 3.104-28.854-2.353-70.851-45.977-107.068-21.228-17.623-51.078-30.107-84.053-35.152-37.449-5.729-77.604-1.725-116.129 11.582a7.5 7.5 0 0 0 4.896 14.178c56.413-19.484 135.713-20.568 185.703 20.934 30.755 25.532 44.448 56.95 40.701 93.381-1.156 11.249-3.875 21.309-6.705 29.306-6.484-19.819-17.335-37.021-31.991-50.517-17.751-16.346-40.589-26.626-64.306-28.946-43.363-4.24-80.438 17.911-94.449 56.437-15.517 42.672-6.479 89.285 24.178 124.69a7.478 7.478 0 0 0 5.673 2.59 7.5 7.5 0 0 0 5.667-12.409c-13.007-15.022-21.932-32.703-25.808-51.13-4.116-19.568-2.641-39.289 4.388-58.615 5.939-16.335 16.803-29.276 31.414-37.423 13.829-7.711 30.244-10.896 47.478-9.211 20.49 2.004 40.238 10.901 55.604 25.051 16.382 15.086 27.328 35.635 31.83 59.617-3.562 2.604-7.46 3.809-11.631 3.543-4.592-.294-9.135-2.371-12.463-5.699-1.773-1.773-7.122-7.999-1.482-13.638a7.503 7.503 0 0 0 1.029-9.326z" fill="#000000" opacity="1" data-original="#000000"></path><path d="M172.102 0c-2.21 0-4.309.975-5.733 2.665-14.298 16.953-27.404 36.004-38.954 56.624a7.5 7.5 0 0 0 13.086 7.331c9.521-16.996 20.129-32.865 31.603-47.286 56.116 70.483 88.145 170.882 88.145 277.154 0 67.563-12.929 133.322-37.457 190.881-10.802-9.584-30.845-28.003-44.955-44.734a7.5 7.5 0 0 0-11.466 0c-14.1 16.718-34.151 35.146-44.956 44.734-24.529-57.561-37.458-123.319-37.458-190.881 0-74.736 15.684-146.782 45.355-208.351a7.5 7.5 0 0 0-13.513-6.512C85.153 145.212 68.955 219.51 68.955 296.487c0 73.335 14.826 144.686 42.877 206.337a7.501 7.501 0 0 0 11.67 2.621c1.236-1.045 28.037-23.779 48.602-46.579 20.563 22.8 47.364 45.533 48.601 46.579a7.503 7.503 0 0 0 11.67-2.621c28.049-61.65 42.875-133 42.875-206.337 0-113.321-35.506-220.416-97.412-293.822A7.507 7.507 0 0 0 172.102 0z" fill="#000000" opacity="1" data-original="#000000"></path><path d="M172.102 430.971a7.5 7.5 0 0 0 7.5-7.5V49.989c0-4.142-3.357-7.5-7.5-7.5s-7.5 3.358-7.5 7.5V423.47a7.5 7.5 0 0 0 7.5 7.501zM267.366 87.325a7.501 7.501 0 0 0 8.551 12.326c.519-.36 52.568-35.72 108.001-9.389a7.499 7.499 0 0 0 9.992-3.557 7.5 7.5 0 0 0-3.557-9.992c-26.199-12.444-55.769-14.563-85.511-6.127-22.318 6.329-36.868 16.317-37.476 16.739zM255.21 81.691a7.527 7.527 0 0 0 3.013.631 7.454 7.454 0 0 0 6.846-4.48c.509-1.113 13.027-27.353 61.128-34.737a7.499 7.499 0 0 0 6.275-8.551c-.629-4.095-4.472-6.903-8.551-6.275-56.805 8.72-71.959 42.093-72.576 43.51-1.656 3.797.068 8.248 3.865 9.902z" fill="#000000" opacity="1" data-original="#000000"></path></g></svg>