<svg xmlns="http://www.w3.org/2000/svg" version="1.1" xmlns:xlink="http://www.w3.org/1999/xlink" width="512" height="512" x="0" y="0" viewBox="0 0 512 512" style="enable-background:new 0 0 512 512" xml:space="preserve" class=""><g><path d="M7.5 422.66h497" style="stroke-width:15;stroke-linecap:round;stroke-linejoin:round;stroke-miterlimit:10;" fill="none" stroke="#000000" stroke-width="15" stroke-linecap="round" stroke-linejoin="round" stroke-miterlimit="10" data-original="#000000" class=""></path><circle cx="107.965" cy="389.658" r="33.003" style="stroke-width:15;stroke-linecap:round;stroke-linejoin:round;stroke-miterlimit:10;" fill="none" stroke="#000000" stroke-width="15" stroke-linecap="round" stroke-linejoin="round" stroke-miterlimit="10" data-original="#000000" class=""></circle><circle cx="205.916" cy="389.658" r="33.003" style="stroke-width:15;stroke-linecap:round;stroke-linejoin:round;stroke-miterlimit:10;" fill="none" stroke="#000000" stroke-width="15" stroke-linecap="round" stroke-linejoin="round" stroke-miterlimit="10" data-original="#000000" class=""></circle><path d="M174.73 378.83h-35.58M299.63 378.83H237.1M466.98 124.34v242.49c0 6.63-5.38 12-12 12h-17.35M37.35 351.52v15.31c0 6.63 5.37 12 12 12h27.43M37.35 316.52V124.34M448.5 89.34h23.01c4.42 0 8 3.58 8 8v19c0 4.42-3.58 8-8 8H32.82c-4.42 0-8-3.58-8-8v-19c0-4.42 3.58-8 8-8H413.5M255.261 300.687H87.348a8 8 0 0 1-8-8V174.339a8 8 0 0 1 8-8h167.913a8 8 0 0 1 8 8v118.348a8 8 0 0 1-8 8zM299.63 422.66v-48.52c0-6.63 5.37-12 12-12h114c6.63 0 12 5.37 12 12v48.52M315.16 362.14V208.86c0-13.25 10.75-24 24-24h58.93c13.26 0 24 10.75 24 24v153.28M79.348 259.861h183.913M171.304 166.339v93.522M79.35 186.69h-42M79.35 280.34h-42M315.162 239.643h106.932M368.628 239.643V362.14" style="stroke-width:15;stroke-linecap:round;stroke-linejoin:round;stroke-miterlimit:10;" fill="none" stroke="#000000" stroke-width="15" stroke-linecap="round" stroke-linejoin="round" stroke-miterlimit="10" data-original="#000000" class=""></path></g></svg>