<svg xmlns="http://www.w3.org/2000/svg" version="1.1" xmlns:xlink="http://www.w3.org/1999/xlink" width="512" height="512" x="0" y="0" viewBox="0 0 48 48" style="enable-background:new 0 0 512 512" xml:space="preserve" class=""><g><path d="M44 3H4c-.55 0-1 .45-1 1s.45 1 1 1h11.86c5.05 1.31 7.37 3.56 7.32 7.18A4.887 4.887 0 0 0 20 11c-2.76 0-5 2.24-5 5 0 1.13.39 2.16 1.03 3H16c-2.76 0-5 2.24-5 5s2.24 5 5 5h.03c-.64.84-1.03 1.87-1.03 3 0 2.76 2.24 5 5 5h.03c-.64.84-1.03 1.87-1.03 3 0 2.76 2.24 5 5 5s5-2.24 5-5c0-1.13-.39-2.16-1.03-3H28c2.76 0 5-2.24 5-5 0-1.13-.39-2.16-1.03-3H32c2.76 0 5-2.24 5-5s-2.24-5-5-5h-.03c.64-.84 1.03-1.87 1.03-3 0-2.76-2.24-5-5-5-1.05 0-2.02.32-2.82.88-.04-2.96-1.37-5.24-4.03-6.88h11.78l1.88 2.11c-1.35 4.17.96 5.35 3.41 6.59 1.02.52 2.17 1.1 3.29 1.98a1.01 1.01 0 0 0 1.08.1.99.99 0 0 0 .54-.94c-.19-4.05-1.14-6.69-2.9-8.07-1.06-.82-2.36-1.14-3.88-.96L35.62 5H44c.55 0 1-.45 1-1s-.45-1-1-1zM27 24c0 1.65-1.35 3-3 3s-3-1.35-3-3 1.35-3 3-3 3 1.35 3 3zm-7-11c1.65 0 3 1.35 3 3s-1.35 3-3 3-3-1.35-3-3 1.35-3 3-3zm-4 14c-1.65 0-3-1.35-3-3s1.35-3 3-3 3 1.35 3 3-1.35 3-3 3zm4 8c-1.65 0-3-1.35-3-3s1.35-3 3-3 3 1.35 3 3-1.35 3-3 3zm4 8c-1.65 0-3-1.35-3-3s1.35-3 3-3 3 1.35 3 3-1.35 3-3 3zm4-8c-1.65 0-3-1.35-3-3s1.35-3 3-3 3 1.35 3 3-1.35 3-3 3zm4-14c1.65 0 3 1.35 3 3s-1.35 3-3 3-3-1.35-3-3 1.35-3 3-3zm-4-8c1.65 0 3 1.35 3 3s-1.35 3-3 3-3-1.35-3-3 1.35-3 3-3zm8.69-5.2c.95-.1 1.7.08 2.32.56.97.75 1.63 2.3 1.95 4.53-.64-.37-1.25-.68-1.82-.97-2.37-1.2-3.26-1.65-2.45-4.12z" fill="#000000" opacity="1" data-original="#000000" class=""></path></g></svg>